<?xml version="1.0" encoding="UTF-8" standalone="no"?>
<!-- Created with Inkscape (http://www.inkscape.org/) -->

<svg
   xmlns:dc="http://purl.org/dc/elements/1.1/"
   xmlns:cc="http://creativecommons.org/ns#"
   xmlns:rdf="http://www.w3.org/1999/02/22-rdf-syntax-ns#"
   xmlns:svg="http://www.w3.org/2000/svg"
   xmlns="http://www.w3.org/2000/svg"
   xmlns:xlink="http://www.w3.org/1999/xlink"
   xmlns:sodipodi="http://sodipodi.sourceforge.net/DTD/sodipodi-0.dtd"
   xmlns:inkscape="http://www.inkscape.org/namespaces/inkscape"
   sodipodi:docname="misc_menu.svg"
   inkscape:version="0.48.4 r9939"
   version="1.1"
   id="svg2984"
   height="600"
   width="600"
   enable-background="new">
  <defs
     id="defs2986">
    <linearGradient
       inkscape:collect="always"
       id="linearGradient5030">
      <stop
         style="stop-color:#000000;stop-opacity:1;"
         offset="0"
         id="stop5032" />
      <stop
         style="stop-color:#000000;stop-opacity:0;"
         offset="1"
         id="stop5034" />
    </linearGradient>
    <filter
       inkscape:collect="always"
       id="filter3936">
      <feBlend
         inkscape:collect="always"
         mode="darken"
         in2="BackgroundImage"
         id="feBlend3938" />
    </filter>
    <linearGradient
       inkscape:collect="always"
       xlink:href="#linearGradient5030"
       id="linearGradient5036"
       x1="429.72409"
       y1="163.76706"
       x2="413.12085"
       y2="159.99361"
       gradientUnits="userSpaceOnUse" />
  </defs>
  <sodipodi:namedview
     id="base"
     pagecolor="#ffffff"
     bordercolor="#666666"
     borderopacity="1.0"
     inkscape:pageopacity="0.0"
     inkscape:pageshadow="2"
     inkscape:zoom="1.3250424"
     inkscape:cx="303.1014"
     inkscape:cy="357.73517"
     inkscape:current-layer="layer2"
     inkscape:document-units="px"
     showgrid="false"
     showguides="true"
     inkscape:window-width="1024"
     inkscape:window-height="717"
     inkscape:window-x="0"
     inkscape:window-y="29"
     inkscape:window-maximized="1"
     inkscape:guide-bbox="true">
    <inkscape:grid
       type="xygrid"
       id="grid2994"
       empspacing="5"
       visible="true"
       enabled="true"
       snapvisiblegridlinesonly="true" />
    <sodipodi:guide
       orientation="0,1"
       position="1020,720"
       id="guide3772" />
  </sodipodi:namedview>
  <metadata
     id="metadata2989">
    <rdf:RDF>
      <cc:Work
         rdf:about="">
        <dc:format>image/svg+xml</dc:format>
        <dc:type
           rdf:resource="http://purl.org/dc/dcmitype/StillImage" />
        <dc:title />
      </cc:Work>
    </rdf:RDF>
  </metadata>
  <g
     id="layer1"
     inkscape:label="hid"
     inkscape:groupmode="layer"
     transform="translate(0,120)"
     style="display:none"
     sodipodi:insensitive="true" />
  <g
     inkscape:groupmode="layer"
     id="layer2"
     inkscape:label="vis"
     style="display:inline;filter:url(#filter3936)">
    <rect
       style="fill:#dffd14;fill-opacity:1;stroke:none"
       id="rect3001"
       width="600.53381"
       height="601.60101"
       x="0.22104442"
       y="0.66313332" />
    <g
       transform="matrix(0.64475363,0,0,1.55098,0,-10.086843)"
       style="font-size:145.66516113px;font-style:normal;font-variant:normal;font-weight:bold;font-stretch:normal;text-align:center;line-height:125%;letter-spacing:0px;word-spacing:0px;text-anchor:middle;fill:#ce5c00;fill-opacity:1;stroke:#764300;stroke-width:4;stroke-miterlimit:4;stroke-opacity:1;font-family:Liberation Sans;-inkscape-font-specification:Liberation Sans Bold"
       id="text15">
      <path
         style="stroke-width:4"
         d="M 525.53799,255.99953 C 525.86553,256.33867 526.13906,256.80982 526.47549,257.12453 528.15695,258.66901 529.92238,259.99021 531.75674,261.09328 533.59106,262.19649 535.42238,263.25125 537.25674,264.28078 539.54963,265.38399 541.74097,266.54164 543.85049,267.71828 545.95994,268.89502 547.82387,270.35956 549.44424,272.12453 551.06453,273.88961 552.37213,276.12224 553.35049,278.84328 554.32876,281.56441 554.81919,285.07784 554.81924,289.34328 554.81919,296.47697 553.60873,301.74159 551.16299,305.12453 548.74774,308.43398 545.2488,310.06206 540.66299,310.06203 538.03374,310.06206 535.77787,309.5402 533.91299,308.43703 532.07863,307.26036 530.54144,305.62127 529.28799,303.56203 528.06508,301.42932 527.08489,298.93023 526.38174,296.06203 525.67856,293.1939 525.15484,290.04984 524.78799,286.59328 L 511.72549,291.74953 C 512.3675,298.66259 513.38234,304.81842 514.81924,310.18703 516.28671,315.48214 518.18323,319.92719 520.50674,323.53078 522.86079,327.13439 525.67299,329.84847 528.94424,331.68703 532.21546,333.52561 536.00784,334.46828 540.28799,334.46828 545.11838,334.46828 549.27146,333.36206 552.75674,331.15578 556.27251,328.87595 559.14991,325.68044 561.38174,321.56203 563.64404,317.44365 565.31165,312.51714 566.38174,306.78078 567.45171,300.97092 567.97543,294.52843 567.97549,287.46828 567.97543,281.43782 567.64802,276.22466 566.97549,271.81203 566.33341,267.39952 565.41843,263.59943 564.25674,260.43703 563.12551,257.20122 561.78463,254.48714 560.22549,252.28078 558.66625,250.07457 556.99796,248.20026 555.19424,246.65578 553.39043,245.11147 551.4939,243.79026 549.50674,242.68703 547.5195,241.51044 545.52448,240.40423 543.50674,239.37453 543.44889,239.34484 543.40811,239.31042 543.35049,239.28078 542.79773,239.74822 542.28285,240.26659 541.69424,240.68703 541.32506,240.95073 540.75628,240.48413 540.35049,240.68703 539.77662,240.97396 539.34784,241.47971 538.94424,241.99953 538.54064,242.51935 538.16559,243.04988 537.63174,243.40578 536.78764,243.96851 535.72583,244.1868 534.88174,244.74953 534.34789,245.10543 533.99168,245.67084 533.53799,246.12453 531.14614,248.51638 530.87111,248.74711 530.47549,249.28078 530.07987,249.81445 529.55647,250.64095 526.72549,254.28078 526.30243,254.82472 525.92991,255.42206 525.53799,255.99953 z"
         id="path3123"
         transform="scale(1.55098,0.64475364)"
         inkscape:connector-curvature="0"
         sodipodi:nodetypes="cccccccccccccccccsscccccccccccscssssssc" />
      <path
         style="stroke-width:4"
         d="M 525.46723,231.65968 C 525.85915,231.08221 526.23167,230.48487 526.65473,229.94093 529.48571,226.3011 530.00911,225.4746 530.40473,224.94093 530.80035,224.40726 531.07538,224.17653 533.46723,221.78468 533.92092,221.33099 534.27713,220.76558 534.81098,220.40968 535.65507,219.84695 536.71688,219.62866 537.56098,219.06593 538.09483,218.71003 538.46988,218.1795 538.87348,217.65968 539.27708,217.13986 539.70586,216.63411 540.27973,216.34718 540.68552,216.14428 541.2543,216.61088 541.62348,216.34718 542.21209,215.92674 542.72697,215.40837 543.27973,214.94093 541.05365,213.79583 538.96966,212.67259 537.09223,211.59718 535.19672,210.42059 533.5617,209.02772 532.18598,207.40968 530.8102,205.71829 529.73151,203.6492 528.96723,201.22218 528.2029,198.72183 527.84221,195.57777 527.84223,191.75343 527.84221,189.2531 528.03852,186.89734 528.43598,184.69093 528.8334,182.41124 529.48754,180.4138 530.40473,178.72218 531.35245,177.03084 532.59552,175.70962 534.15473,174.75343 535.74447,173.72397 537.73881,173.22232 540.12348,173.22218 543.97555,173.22232 546.91885,174.90184 548.96723,178.28468 551.04611,181.66779 552.4196,186.7174 553.09223,193.40968 L 566.21723,189.09718 C 565.66687,182.55198 564.7845,176.85739 563.59223,172.00343 562.43043,167.0762 560.82803,162.98946 558.77973,159.75343 556.76192,156.51768 554.24384,154.14174 551.21723,152.59718 548.2211,150.9794 544.62368,150.15984 540.40473,150.15968 536.67488,150.15984 533.24116,150.9794 530.09223,152.59718 526.94327,154.21529 524.19764,156.78602 521.90473,160.31593 519.64237,163.7726 517.87626,168.23785 516.59223,173.75343 515.30819,179.26927 514.68597,185.90655 514.68598,193.62843 514.68597,199.29135 514.94885,204.21785 515.52973,208.40968 516.14117,212.60172 516.99026,216.27867 518.02973,219.44093 519.09975,222.52982 520.34282,225.15202 521.77973,227.28468 522.9238,228.98288 524.18747,230.33458 525.46723,231.65968 z"
         id="path3121"
         transform="scale(1.55098,0.64475364)"
         inkscape:connector-curvature="0"
         sodipodi:nodetypes="csssssscsccccccccccccccccccsscccc" />
      <path
         style="stroke-width:4"
         d="M 441.96875,185.0625 441.96875,320 455.5,320 455.5,260.96875 471.375,260.96875 486.375,320 501.59375,320 484.125,254.6875 C 486.1733,253.51088 488.06983,251.68802 489.8125,249.1875 491.33408,246.93999 492.63254,244.14478 493.78125,241 493.37428,240.42977 492.79195,239.4197 492.5,239.09375 491.83673,238.35324 491.4253,238.12008 491.15625,237.78125 490.8872,237.44242 490.74554,237.00523 490.59375,235.875 490.44196,234.74477 490.28022,232.89595 489.96875,229.78125 489.78818,227.97552 489.96875,226.15849 489.96875,224.34375 489.96875,223.89006 490.15563,223.34794 490.25,222.84375 490.34437,222.33956 490.34624,221.87666 489.96875,221.625 489.40252,221.24751 488.74035,221.24938 488.03125,221.34375 487.32215,221.43812 486.58678,221.625 485.90625,221.625 485.21472,221.625 484.6732,221.63917 484.0625,221.65625 484.05952,221.67505 484.0655,221.69998 484.0625,221.71875 483.60387,224.58702 482.91645,227.08611 481.96875,229.21875 481.05154,231.27803 479.84243,232.8859 478.375,234.0625 476.93806,235.16573 475.23648,235.71883 473.21875,235.71875 L 455.5,235.71875 455.5,189.84375 455.81274,190.67492 C 455.53085,190.37156 457.60453,189.26078 457.3125,188.96875 456.85882,188.51507 456.25568,188.16763 455.96875,187.59375 455.73408,187.1244 455.71774,186.8194 455.78125,186.59375 455.84476,186.3681 455.98588,186.22263 456.0625,186.09375 456.13912,185.96487 456.13283,185.86656 455.9375,185.6875 455.74217,185.50844 455.34609,185.25117 454.59375,184.875 454.18796,184.6721 453.67243,184.875 453.21875,184.875 452.26165,184.875 442.924,184.6574 442.34375,184.875 442.17342,184.93887 442.13066,184.99934 441.96875,185.0625 z"
         id="path3119"
         transform="scale(1.55098,0.64475364)"
         inkscape:connector-curvature="0"
         sodipodi:nodetypes="ccccccccccsssssssssccccccccssssssscc" />
      <path
         style="stroke-width:4"
         d="M 446.05193,168.7298 C 446.21384,168.66664 446.2566,168.60617 446.42693,168.5423 447.00718,168.3247 456.34483,168.5423 457.30193,168.5423 457.75561,168.5423 458.27114,168.3394 458.67693,168.5423 459.42927,168.91847 459.82535,169.17574 460.02068,169.3548 460.21601,169.53386 460.2223,169.63217 460.14568,169.76105 460.06906,169.88993 459.92794,170.0354 459.86443,170.26105 459.80092,170.4867 459.81726,170.7917 460.05193,171.26105 460.33886,171.83493 460.942,172.18237 461.39568,172.63605 461.68771,172.92808 461.98879,173.20769 462.27068,173.51105 L 476.92693,173.51105 C 480.74843,173.51119 483.69104,175.33403 485.73943,179.01105 487.8183,182.68832 488.83313,188.31125 488.83318,195.88605 488.83314,199.32005 488.59823,202.47042 488.14568,205.32355 488.75638,205.30647 489.2979,205.2923 489.98943,205.2923 490.66996,205.2923 491.40533,205.10542 492.11443,205.01105 492.82353,204.91668 493.4857,204.91481 494.05193,205.2923 494.42942,205.54396 494.42755,206.00686 494.33318,206.51105 494.23881,207.01524 494.05193,207.55736 494.05193,208.01105 494.05193,209.82579 493.87136,211.64282 494.05193,213.44855 494.3634,216.56325 494.52514,218.41207 494.67693,219.5423 494.82872,220.67253 494.97038,221.10972 495.23943,221.44855 495.50848,221.78738 495.91991,222.02054 496.58318,222.76105 496.87513,223.087 497.45746,224.09707 497.86443,224.6673 498.03126,224.21056 498.23671,223.83046 498.39568,223.3548 499.67966,219.60419 500.6612,215.35393 501.36443,210.57355 502.0981,205.71982 502.45812,200.38354 502.45818,194.57355 502.45812,187.44 501.96701,181.04897 500.95818,175.38605 499.97981,169.64983 498.47589,164.795 496.45818,160.82355 494.44035,156.77884 491.92228,153.67521 488.89568,151.5423 485.89955,149.33617 482.36868,148.22996 478.33318,148.2298 L 446.05193,148.2298 z"
         id="path3117"
         transform="scale(1.55098,0.64475364)"
         inkscape:connector-curvature="0"
         sodipodi:nodetypes="ccssssssscccccssssssssscccccccccc" />
      <path
         style="stroke-width:4"
         d="M 379.25,257.49232 379.25,339.05482 431.9375,339.05482 431.9375,313.89857 392.78125,313.89857 392.78125,272.96107 427.25,272.96107 427.25,247.83607 392.78125,247.83607 392.78125,244.92982 C 388.87621,248.4906 384.93576,252.02 381.09375,255.64857 380.46108,256.24609 379.88077,256.8919 379.25,257.49232 z"
         id="path3115"
         transform="scale(1.55098,0.64475364)"
         inkscape:connector-curvature="0"
         sodipodi:nodetypes="ccccccccccsc" />
      <path
         style="stroke-width:4"
         d="M 379.25,238.4375 C 379.88077,237.83708 380.46108,237.19127 381.09375,236.59375 384.93576,232.96518 388.87621,229.43578 392.78125,225.875 L 392.78125,189.71875 430.0625,189.71875 430.0625,164.5625 379.25,164.5625 379.25,238.4375 z"
         id="path3113"
         transform="scale(1.55098,0.64475364)"
         inkscape:connector-curvature="0" />
      <path
         style="stroke-width:4"
         d="M 331.59375,218.90625 334.8125,218.90625 C 335.96974,218.90625 338.06019,218.7268 340,218.8125 340.9699,218.85535 341.8866,218.96444 342.65625,219.1875 343.4259,219.41056 344.03827,219.74088 344.34375,220.25 346.66122,219.36293 344.82902,222.24515 345.09375,223.375 L 369.78125,164.5625 354.03125,164.5625 z"
         id="path3111"
         transform="scale(1.55098,0.64475364)"
         inkscape:connector-curvature="0"
         sodipodi:nodetypes="csssccccc" />
      <path
         style="stroke-width:4"
         d="M 311.375,232.98559 311.375,333.61059 324.90625,333.61059 324.90625,276.92309 332.875,262.23559 356.09375,333.61059 372.03125,333.61059 342.1875,243.92309 345.09375,236.98559 C 344.82902,235.85574 344.52393,234.1609 344.34375,233.86059 344.03827,233.35147 343.4259,233.02115 342.65625,232.79809 341.8866,232.57503 340.9699,232.46594 340,232.42309 338.06019,232.33739 335.96974,232.51684 334.8125,232.51684 L 331.59375,232.51684 324.90625,248.67309 324.90625,232.51684 321.21875,232.51684 315.78125,232.51684 C 314.87387,232.51684 313.92628,232.36767 313.03125,232.51684 312.70313,232.57153 311.88952,232.86717 311.375,232.98559 z"
         id="path3109"
         transform="scale(1.55098,0.64475364)"
         inkscape:connector-curvature="0"
         sodipodi:nodetypes="ccccccccccsssccccscc" />
      <path
         style="stroke-width:4"
         d="M 311.375,219.375 C 311.88952,219.25658 312.70313,218.96094 313.03125,218.90625 313.92628,218.75708 314.87387,218.90625 315.78125,218.90625 L 321.21875,218.90625 324.90625,218.90625 324.90625,164.5625 311.375,164.5625 311.375,219.375 z"
         id="path3107"
         transform="scale(1.55098,0.64475364)"
         inkscape:connector-curvature="0" />
      <path
         style="stroke-width:4"
         d="M 238.93076,202.57981 C 238.46892,205.0508 237.91786,207.3544 237.55576,210.04856 236.27172,219.82988 235.61826,230.78908 235.61826,242.92356 235.61826,254.61696 236.27172,265.38138 237.55576,275.23606 238.87037,285.09085 240.86471,293.62262 243.52451,300.82981 246.21486,307.96348 249.58405,313.56621 253.68076,317.61106 257.77743,321.58238 262.64849,323.57981 268.24326,323.57981 272.52334,323.57981 276.21927,322.33027 279.36826,319.82981 282.54773,317.25582 285.29403,313.88572 287.58701,309.76731 289.87988,305.64892 291.77709,300.91722 293.30576,295.54856 294.83432,290.17995 296.0767,284.70036 297.02451,279.11106 L 285.24326,268.42356 C 284.66234,272.02722 283.91038,275.58105 282.99326,279.11106 282.10661,282.64115 280.99396,285.81646 279.61826,288.61106 278.27303,291.40572 276.67063,293.65856 274.80576,295.42356 272.97138,297.11507 270.78072,297.98609 268.24326,297.98606 264.88027,297.98609 261.97094,296.61341 259.55576,293.89231 257.17109,291.17124 255.20935,287.37118 253.68076,282.51731 252.15213,277.66353 251.03948,271.89726 250.30576,265.20481 249.60258,258.43892 249.24325,251.01335 249.24326,242.92356 249.24325,239.643 249.34845,236.5991 249.46201,233.57981 248.96568,232.01953 248.56147,230.54721 247.71201,228.42356 247.33525,227.48164 246.71377,226.64672 246.33701,225.70481 245.80418,224.37274 245.52608,222.94313 244.99326,221.61106 244.61649,220.66915 243.8643,219.87649 243.61826,218.89231 243.39819,218.01202 243.61826,217.08093 243.61826,216.17356 L 243.61826,206.64231 C 243.61826,205.96178 243.87296,205.18517 243.99326,204.45481 244.05341,204.08963 244.06962,203.74514 244.02451,203.42356 243.9794,203.10198 243.85886,202.82041 243.61826,202.57981 243.37766,202.33921 243.09609,202.21867 242.77451,202.17356 242.45293,202.12845 242.10844,202.14466 241.74326,202.20481 241.0129,202.32511 240.23629,202.57981 239.55576,202.57981 239.34954,202.57981 239.14328,202.60649 238.93076,202.57981 z"
         id="path3105"
         transform="scale(1.55098,0.64475364)"
         inkscape:connector-curvature="0"
         sodipodi:nodetypes="ccscccsccccccccccccscssssssssssssc" />
      <path
         style="stroke-width:4"
         d="M 249.81923,193.0524 C 250.03175,193.07908 250.23801,193.0524 250.44423,193.0524 251.12476,193.0524 251.90137,192.7977 252.63173,192.6774 252.99691,192.61725 253.3414,192.60104 253.66298,192.64615 253.98456,192.69126 254.26613,192.8118 254.50673,193.0524 254.74733,193.293 254.86787,193.57457 254.91298,193.89615 254.95809,194.21773 254.94188,194.56222 254.88173,194.9274 254.76143,195.65776 254.50673,196.43437 254.50673,197.1149 L 254.50673,206.64615 C 254.50673,207.55352 254.28666,208.48461 254.50673,209.3649 254.75277,210.34908 255.50496,211.14174 255.88173,212.08365 256.41455,213.41572 256.69265,214.84533 257.22548,216.1774 257.60224,217.11931 258.22372,217.95423 258.60048,218.89615 259.44994,221.0198 259.85415,222.49212 260.35048,224.0524 260.5195,219.55866 260.77364,215.24863 261.19423,211.33365 261.92795,204.7149 263.03991,199.04052 264.53798,194.33365 266.06657,189.62703 267.99638,186.05298 270.35048,183.5524 272.70451,180.97853 275.51671,179.67754 278.78798,179.6774 281.11144,179.67754 283.2036,180.42543 285.03798,181.89615 286.87227,183.2936 288.474,185.16789 289.81923,187.52115 291.19493,189.87464 292.30758,192.58872 293.19423,195.6774 294.08077,198.69277 294.73492,201.83682 295.16298,205.14615 L 307.10048,197.33365 C 306.2444,191.00909 305.03529,185.24282 303.50673,180.02115 302.00863,174.7262 300.11142,170.15803 297.78798,166.33365 295.495,162.43602 292.7487,159.40404 289.56923,157.27115 286.42023,155.13857 282.75692,154.08381 278.53798,154.08365 273.09608,154.08381 268.35475,155.95813 264.31923,159.70865 260.31424,163.38595 256.97969,168.67076 254.35048,175.58365 252.44546,180.53932 251.0341,186.55253 249.81923,193.0524 z"
         id="path3103"
         transform="scale(1.55098,0.64475364)"
         inkscape:connector-curvature="0"
         sodipodi:nodetypes="cssssssssssssccccccccccccccccc" />
      <path
         style="stroke-width:4"
         d="M 188.20818,252.8779 175.77068,334.97165 189.30193,334.97165 195.02068,295.2529 219.64568,295.2529 225.39568,334.97165 238.77068,334.97165 223.33318,232.8154 C 222.88507,233.15366 222.27737,233.55344 221.86443,233.8779 218.63942,236.41185 215.78479,239.39597 212.52068,241.8779 L 216.64568,270.78415 198.05193,270.78415 201.17693,248.9404 197.36443,250.22165 C 196.00337,250.67534 194.60275,251.03257 193.27068,251.5654 192.32877,251.94216 191.53611,252.69435 190.55193,252.9404 189.80162,253.12798 188.99747,252.98308 188.20818,252.8779 z"
         id="path3101"
         transform="scale(1.55098,0.64475364)"
         inkscape:connector-curvature="0"
         sodipodi:nodetypes="ccccccccscccccssc" />
      <path
         style="stroke-width:4"
         d="M 184.125,237.90625 C 184.91429,238.01143 185.71844,238.15633 186.46875,237.96875 187.45293,237.7227 188.24559,236.97051 189.1875,236.59375 190.51957,236.06092 191.92019,235.70369 193.28125,235.25 L 197.09375,233.96875 200.34375,211.125 C 200.71058,208.5511 201.06992,205.98036 201.40625,203.40625 201.77308,200.75882 202.06789,198.35161 202.3125,196.21875 202.58762,194.08612 202.81585,192.33493 202.96875,190.9375 203.12158,189.54032 203.21939,188.72075 203.25,188.5 203.28054,188.6472 203.3471,189.41532 203.5,190.8125 203.6834,192.20995 203.91164,194.01259 204.15625,196.21875 204.43137,198.35161 204.72617,200.75882 205.0625,203.40625 205.42933,205.98036 205.82059,208.5511 206.1875,211.125 L 208.4375,226.90625 C 211.70161,224.42432 214.55624,221.4402 217.78125,218.90625 218.19419,218.58179 218.80189,218.18201 219.25,217.84375 L 211.21875,164.5625 195.25,164.5625 184.125,237.90625 z"
         id="path3099"
         transform="scale(1.55098,0.64475364)"
         inkscape:connector-curvature="0" />
      <path
         style="stroke-width:4"
         d="M 142.14568,276.74953 156.23943,332.24953 171.45818,332.24953 154.17693,267.62453 C 154.05105,267.71721 153.92992,267.81619 153.80193,267.90578 151.12175,269.78191 148.22811,271.33472 145.64568,273.34328 144.02388,274.60468 143.1351,275.50522 142.61443,276.12453 142.3339,276.4582 142.27555,276.5536 142.14568,276.74953 z"
         id="path3097"
         transform="scale(1.55098,0.64475364)"
         inkscape:connector-curvature="0"
         sodipodi:nodetypes="cccccssc" />
      <path
         style="stroke-width:4"
         d="M 100.94471,229.26684 100.94471,333.61059 114.47596,333.61059 114.47596,274.57934 125.22596,274.57934 C 125.22192,274.17131 125.2837,273.7648 125.22596,273.36059 124.96142,271.50879 124.30464,269.70659 123.85096,267.89184 123.85096,266.0771 124.05136,264.25798 123.85096,262.45434 123.67817,260.89922 123.20025,258.63201 122.66346,256.36059 122.12667,254.08917 121.5344,251.81307 121.13221,250.20434 121.0592,249.91231 120.9851,249.62174 120.91346,249.32934 L 114.47596,249.32934 114.47596,231.39184 C 114.42344,231.30896 114.37018,231.22595 114.31971,231.14184 113.6585,230.03982 113.31086,229.0296 112.78846,228.11059 112.52726,227.65108 112.2241,227.19875 111.81971,226.79809 111.41532,226.39743 110.92338,226.03743 110.25721,225.70434 109.85142,225.50144 109.37912,225.49737 108.91346,225.54809 108.4478,225.59881 107.99215,225.70434 107.53846,225.70434 107.08478,225.70434 106.59387,225.56087 106.16346,225.70434 104.27569,226.3336 103.8521,226.56638 103.60096,226.86059 103.34982,227.1548 103.26055,227.50706 102.06971,228.42309 101.69836,228.70875 101.3188,228.9847 100.94471,229.26684 z"
         id="path3095"
         transform="scale(1.55098,0.64475364)"
         inkscape:connector-curvature="0"
         sodipodi:nodetypes="cccccscsssccccssssssssc" />
      <path
         style="stroke-width:4"
         d="M 107.75,215.65625 C 108.12409,215.37411 108.50365,215.09816 108.875,214.8125 110.06584,213.89647 110.15511,213.54421 110.40625,213.25 110.65739,212.95579 111.08098,212.72301 112.96875,212.09375 113.39916,211.95028 113.89007,212.09375 114.34375,212.09375 114.79744,212.09375 115.25309,211.98822 115.71875,211.9375 116.18441,211.88678 116.65671,211.89085 117.0625,212.09375 117.72867,212.42684 118.22061,212.78684 118.625,213.1875 119.02939,213.58816 119.33255,214.04049 119.59375,214.5 120.11615,215.41901 120.46379,216.42923 121.125,217.53125 121.17547,217.61536 121.22873,217.69837 121.28125,217.78125 L 121.28125,189.84375 138.625,189.84375 C 142.44649,189.84389 145.38911,191.66673 147.4375,195.34375 149.51637,199.02102 150.56245,204.64395 150.5625,212.21875 150.56245,215.67537 150.33354,218.85068 149.875,221.71875 149.41637,224.58702 148.6977,227.08611 147.75,229.21875 146.83279,231.27803 145.65493,232.8859 144.1875,234.0625 142.75056,235.16573 141.01773,235.71883 139,235.71875 L 127.71875,235.71875 C 127.79039,236.01115 127.86449,236.30172 127.9375,236.59375 128.33969,238.20248 128.93196,240.47858 129.46875,242.75 130.00554,245.02142 130.48346,247.28863 130.65625,248.84375 130.85665,250.64739 130.65625,252.46651 130.65625,254.28125 131.10993,256.096 131.76671,257.8982 132.03125,259.75 132.08899,260.15421 132.02721,260.56072 132.03125,260.96875 L 137.15625,260.96875 136.21537,260.80573 C 137.01692,260.6098 137.77577,264.20867 138.0563,263.875 138.57697,263.25569 139.9407,262.35515 141.5625,261.09375 144.14493,259.08519 147.03857,257.53238 149.71875,255.65625 149.84674,255.56666 149.96787,255.46768 150.09375,255.375 L 149.90625,254.6875 C 151.95455,253.51088 153.85107,251.68802 155.59375,249.1875 157.33631,246.61357 158.84023,243.43827 160.09375,239.6875 161.37773,235.93689 162.35928,231.68663 163.0625,226.90625 163.79617,222.05252 164.15619,216.71624 164.15625,210.90625 164.15619,203.7727 163.66508,197.38167 162.65625,191.71875 161.67788,185.98253 160.17396,181.1277 158.15625,177.15625 156.13842,173.11154 153.62035,170.00791 150.59375,167.875 147.59762,165.66887 144.06675,164.56266 140.03125,164.5625 L 107.75,164.5625 z"
         id="path3093"
         transform="scale(1.55098,0.64475364)"
         inkscape:connector-curvature="0"
         sodipodi:nodetypes="csssssssscccccccccccssscscccssccccccccccccc" />
      <path
         style="stroke-width:4"
         d="M 28.39278,216.49279 C 27.189932,226.03299 26.580276,236.62322 26.58028,248.36779 26.580276,260.06119 27.202488,270.82561 28.48653,280.68029 29.801132,290.53508 31.79548,299.06685 34.45528,306.27404 37.145629,313.40771 40.546073,319.01044 44.64278,323.05529 48.739444,327.02661 53.579268,329.02404 59.17403,329.02404 63.454117,329.02404 67.181284,327.7745 70.33028,325.27404 73.509747,322.70005 76.224804,319.32995 78.51778,315.21154 80.810646,311.09315 82.739101,306.36145 84.26778,300.99279 85.79633,295.62418 87.038723,290.14459 87.98653,284.55529 L 76.20528,273.86779 C 75.624351,277.47145 74.872397,281.02528 73.95528,284.55529 73.068628,288.08538 71.924734,291.26069 70.54903,294.05529 69.203803,296.84995 67.601396,299.10279 65.73653,300.86779 63.902148,302.5593 61.711497,303.43032 59.17403,303.43029 55.811047,303.43032 52.932963,302.05764 50.51778,299.33654 48.133114,296.61547 46.171372,292.81541 44.64278,287.96154 43.114145,283.10776 41.970246,277.34149 41.23653,270.64904 40.533349,263.88315 40.205262,256.45758 40.20528,248.36779 40.205265,241.65893 40.480332,235.64022 40.95528,230.02404 40.901602,229.92078 40.890616,229.92596 40.83028,229.80529 40.627385,229.3995 41.151085,228.7511 40.83028,228.43029 40.509475,228.10949 39.86107,228.63319 39.45528,228.43029 38.881407,228.14336 38.565217,227.50898 38.11153,227.05529 36.558578,225.50234 32.569739,221.96832 31.29903,220.27404 30.690346,219.46246 30.672621,218.27263 29.95528,217.55529 29.512115,217.11212 28.928014,216.82238 28.39278,216.49279 z"
         id="path3091"
         transform="scale(1.55098,0.64475364)"
         inkscape:connector-curvature="0"
         sodipodi:nodetypes="cscccsccccccccccccscsccsssc" />
      <path
         style="stroke-width:4"
         d="M 30.434368,196.75744 C 30.969602,197.08703 31.553703,197.37677 31.996868,197.81994 32.714209,198.53728 32.731934,199.72711 33.340618,200.53869 34.611327,202.23297 38.600166,205.76699 40.153118,207.31994 40.606805,207.77363 40.922995,208.40801 41.496868,208.69494 41.902658,208.89784 42.551063,208.37414 42.871868,208.69494 43.192673,209.01575 42.668973,209.66415 42.871868,210.06994 42.932204,210.19061 42.94319,210.18543 42.996868,210.28869 43.099824,209.07125 43.152843,207.73603 43.278118,206.56994 44.011834,199.95119 45.123804,194.27681 46.621868,189.56994 48.15046,184.86332 50.111524,181.28927 52.465618,178.78869 54.819656,176.21482 57.631851,174.91383 60.903118,174.91369 63.226578,174.91383 65.287492,175.66172 67.121868,177.13244 68.956166,178.52989 70.557891,180.40418 71.903118,182.75744 73.278822,185.11093 74.422722,187.82501 75.309368,190.91369 76.195917,193.92906 76.850053,197.07311 77.278118,200.38244 L 89.184368,192.56994 C 88.328277,186.24538 87.150424,180.47911 85.621868,175.25744 84.12377,169.96249 82.195309,165.39432 79.871868,161.56994 77.578892,157.67231 74.863842,154.64033 71.684368,152.50744 68.535378,150.37486 64.840807,149.3201 60.621868,149.31994 55.179967,149.3201 50.438637,151.19442 46.403118,154.94494 42.398128,158.62224 39.094823,163.90705 36.465618,170.81994 33.83639,177.65956 31.84272,185.97637 30.528118,195.75744 30.486858,196.07174 30.474302,196.44071 30.434368,196.75744 z"
         id="path3010"
         transform="scale(1.55098,0.64475364)"
         inkscape:connector-curvature="0"
         sodipodi:nodetypes="csssccscccccccccccccccccc" />
    </g>
    <g
       id="g4049"
       transform="matrix(9.1222809,3.2406463,-3.2406463,9.1222809,3389.3812,-9054.148)">
      <g
         id="g3329">
        <path
           style="fill:#ff6c00;fill-opacity:1;stroke:#632700;stroke-width:1;stroke-linecap:round;stroke-linejoin:round;stroke-miterlimit:4;stroke-opacity:1;stroke-dasharray:none"
           d="M 32,1037.3622 C 26,1039.3622 18,1038.3622 14,1036.3622 12.168779,1035.4466 6.8944229,1045.151 6,1043.3622 5,1041.3622 2.962748,1042.3184 3.245283,1041.5131 4,1039.3622 2.0816478,1040.2251 2.6226415,1039.3622 3.1636352,1038.4993 4.2913225,1038.2374 3.6226415,1037.0792 3.3050029,1036.529 7,1035.3622 8,1034.3622 9.5620696,1032.8001 10.06089,1029.4703 19,1024.3622 26,1020.3622 34.418503,1018.3597 39,1020.3622 42.697056,1021.9781 40,1022.3622 46,1019.2113 48.322165,1017.9918 52.493205,1018.403 52,1021.3622 51,1027.3622 47.000004,1025.3622 45.867924,1027.3622 45.094047,1028.7294 44.309642,1029.9006 43.444438,1030.9304 40.326002,1033.9782 37.833831,1035.9247 32,1037.3622 z"
           id="path2989"
           inkscape:connector-curvature="0"
           sodipodi:nodetypes="cssssssssssscc" />
      </g>
      <path
         inkscape:connector-curvature="0"
         transform="translate(9.6299434,998.80349)"
         style="fill:none;stroke:#632700;stroke-width:1;stroke-linecap:round;stroke-linejoin:miter;stroke-miterlimit:4;stroke-opacity:1"
         d="M 38.42242,22.5 C 38.42242,23.009439 38.009439,23.42242 37.5,23.42242 36.990561,23.42242 36.57758,23.009439 36.57758,22.5 36.57758,21.990561 36.990561,21.57758 37.5,21.57758 38.009439,21.57758 38.42242,21.990561 38.42242,22.5 z"
         id="path3764" />
      <path
         sodipodi:nodetypes="cc"
         inkscape:connector-curvature="0"
         id="path4006"
         d="M 51.283019,1022.7018 C 48.283019,1024.7018 47.283019,1024.7018 47.283019,1024.7018"
         style="fill:none;stroke:#632700;stroke-width:1px;stroke-linecap:round;stroke-linejoin:round;stroke-opacity:1" />
      <path
         sodipodi:nodetypes="cc"
         inkscape:connector-curvature="0"
         id="path4006-7"
         d="M 42,1021.3622 C 41,1023.3622 43,1026.3622 43,1026.3622"
         style="fill:none;stroke:#632700;stroke-width:1px;stroke-linecap:round;stroke-linejoin:round;stroke-opacity:1" />
      <path
         sodipodi:nodetypes="cc"
         inkscape:connector-curvature="0"
         id="path4006-0"
         d="M 42,1024.3622 C 32,1036.3622 10,1036.3622 10,1036.3622"
         style="fill:none;stroke:#632700;stroke-width:1px;stroke-linecap:round;stroke-linejoin:round;stroke-opacity:1" />
    </g>
    <text
       xml:space="preserve"
       style="font-size:101.85682678000000578px;font-style:normal;font-variant:normal;font-weight:bold;font-stretch:normal;line-height:125%;letter-spacing:0px;word-spacing:0px;fill:#73d216;fill-opacity:1;stroke:#4e9a06;stroke-width:2;stroke-miterlimit:4;stroke-opacity:1;stroke-dasharray:none;font-family:Liberation Sans;-inkscape-font-specification:Liberation Sans Bold"
       x="300.32233"
       y="125.21265"
       id="text3794"
       sodipodi:linespacing="125%"
       transform="scale(1.0027461,0.99726142)"><tspan
         sodipodi:role="line"
         id="tspan3796"
         x="301.32233"
         y="125.21265"
         style="font-style:normal;font-weight:bold;text-align:center;letter-spacing:2px;text-anchor:middle;fill:#73d216;stroke-width:2;-inkscape-font-specification:Liberation Sans Bold;stroke:#4e9a06">TURTLE</tspan></text>
    <path
       style="fill:#ff6c00;fill-opacity:1;stroke:#632700;stroke-width:9.68079567;stroke-linecap:round;stroke-linejoin:round;stroke-miterlimit:4;stroke-opacity:1;stroke-dasharray:none"
       d="M 367.76554,479.73121 C 416.16951,489.412 419.54956,480.07778 448.34905,472.45803 445.2119,586.21996 190.90011,596.36156 233.2976,573.33675 289.27317,546.70682 358.08474,518.45439 367.76554,479.73121 z"
       id="path2989-0"
       inkscape:connector-curvature="0"
       sodipodi:nodetypes="cccc" />
    <path
       inkscape:connector-curvature="0"
       id="path4336"
       d="M 17.181158,129.74712 C 18.601242,133.16785 24.541697,136.01749 26.354197,136.01749 27.583364,136.01749 32.360897,133.53759 33.243588,132.68219 37.312164,128.73941 34.604391,123.27532 32.309703,118.09524 30.170517,113.2662 21.71352,105.42109 21.71352,105.42109 16.249622,100.76837 14.018673,122.12926 17.181158,129.74712 z"
       style="font-size:145.66516113px;font-style:normal;font-variant:normal;font-weight:bold;font-stretch:normal;text-align:center;line-height:125%;letter-spacing:0px;word-spacing:0px;text-anchor:middle;fill:#ce5c00;fill-opacity:1;stroke:#764300;stroke-width:4;stroke-miterlimit:4;stroke-opacity:1;display:inline;filter:url(#filter3936);font-family:Liberation Sans;-inkscape-font-specification:Liberation Sans Bold"
       sodipodi:nodetypes="assssa"
       transform="matrix(0.23048745,0,0,0.23048745,432.77944,140.2463)" />
    <use
       id="use4391"
       xlink:href="#path4336"
       x="0"
       y="0"
       width="600"
       height="600"
       transform="translate(-163.64287,57.703272)" />
    <use
       id="use4393"
       xlink:href="#path4336"
       x="0"
       y="0"
       width="600"
       height="600"
       transform="translate(-70.207061,71.584519)" />
    <use
       id="use4395"
       xlink:href="#path4336"
       x="0"
       y="0"
       width="600"
       height="600"
       transform="translate(-382.94381,59.836311)" />
    <use
       id="use4397"
       xlink:href="#path4336"
       x="0"
       y="0"
       width="600"
       height="600"
       transform="translate(46.287802,152.14792)" />
    <use
       id="use4399"
       xlink:href="#path4336"
       x="0"
       y="0"
       width="600"
       height="600"
       transform="translate(128.98845,102.98472)" />
    <use
       id="use4401"
       xlink:href="#path4336"
       x="0"
       y="0"
       width="600"
       height="600"
       transform="translate(-269.42382,58.896907)" />
    <use
       id="use4403"
       xlink:href="#path4336"
       x="0"
       y="0"
       width="600"
       height="600"
       transform="translate(-232.0837,85.720001)" />
    <use
       id="use4405"
       xlink:href="#path4336"
       x="0"
       y="0"
       width="600"
       height="600"
       transform="translate(-34.018497,124.78785)" />
    <use
       id="use4407"
       xlink:href="#path4336"
       x="0"
       y="0"
       width="600"
       height="600"
       transform="translate(88.560081,61.15414)" />
    <use
       id="use4409"
       xlink:href="#path4336"
       x="0"
       y="0"
       width="600"
       height="600"
       transform="translate(-91.047369,-13.524549)" />
    <use
       id="use4411"
       xlink:href="#path4336"
       x="0"
       y="0"
       width="600"
       height="600"
       transform="translate(-37.216882,34.074287)" />
    <use
       id="use4413"
       xlink:href="#path4336"
       x="0"
       y="0"
       width="600"
       height="600"
       transform="translate(-235.12661,61.262623)" />
    <use
       id="use4415"
       xlink:href="#path4336"
       x="0"
       y="0"
       width="600"
       height="600"
       transform="translate(-306.63666,29.582713)" />
    <use
       id="use4417"
       xlink:href="#path4336"
       x="0"
       y="0"
       width="600"
       height="600"
       transform="translate(-266.24308,37.735593)" />
    <use
       id="use4419"
       xlink:href="#path4336"
       x="0"
       y="0"
       width="600"
       height="600"
       transform="translate(-72.960145,89.577887)" />
    <use
       id="use4421"
       xlink:href="#path4336"
       x="0"
       y="0"
       width="600"
       height="600"
       transform="translate(-18.938668,-22.459118)" />
    <use
       id="use4423"
       xlink:href="#path4336"
       x="0"
       y="0"
       width="600"
       height="600"
       transform="translate(27.127885,43.766422)" />
    <use
       id="use4425"
       xlink:href="#path4336"
       x="0"
       y="0"
       width="600"
       height="600"
       transform="translate(-226.29273,144.23338)" />
    <use
       id="use4427"
       xlink:href="#path4336"
       x="0"
       y="0"
       width="600"
       height="600"
       transform="translate(-414.54638,14.092646)" />
    <use
       id="use4429"
       xlink:href="#path4336"
       x="0"
       y="0"
       width="600"
       height="600"
       transform="translate(100.79324,120.66763)" />
    <use
       id="use4431"
       xlink:href="#path4336"
       x="0"
       y="0"
       width="600"
       height="600"
       transform="translate(-69.219854,-21.558846)" />
    <use
       id="use4433"
       xlink:href="#path4336"
       x="0"
       y="0"
       width="600"
       height="600"
       transform="translate(-28.666347,22.783164)" />
    <use
       id="use4435"
       xlink:href="#path4336"
       x="0"
       y="0"
       width="600"
       height="600"
       transform="translate(-180.30429,95.307729)" />
    <use
       id="use4437"
       xlink:href="#path4336"
       x="0"
       y="0"
       width="600"
       height="600"
       transform="translate(0.29184154,-22.528598)" />
    <use
       id="use4439"
       xlink:href="#path4336"
       x="0"
       y="0"
       width="600"
       height="600"
       transform="translate(-209.84731,41.113369)" />
    <use
       id="use4441"
       xlink:href="#path4336"
       x="0"
       y="0"
       width="600"
       height="600"
       transform="translate(-176.1143,58.737787)" />
    <use
       id="use4443"
       xlink:href="#path4336"
       x="0"
       y="0"
       width="600"
       height="600"
       transform="translate(64.769366,-23.39474)" />
    <use
       id="use4445"
       xlink:href="#path4336"
       x="0"
       y="0"
       width="600"
       height="600"
       transform="translate(-421.59993,89.878246)" />
    <use
       id="use4447"
       xlink:href="#path4336"
       x="0"
       y="0"
       width="600"
       height="600"
       transform="translate(70.843227,136.39306)" />
    <use
       id="use4449"
       xlink:href="#path4336"
       x="0"
       y="0"
       width="600"
       height="600"
       transform="translate(-374.0202,75.961426)" />
    <use
       id="use4453"
       xlink:href="#path4336"
       x="0"
       y="0"
       width="600"
       height="600"
       transform="matrix(-1,0,0,-1,670.3853,318.90658)" />
    <use
       id="use4455"
       xlink:href="#path4336"
       x="0"
       y="0"
       width="600"
       height="600"
       transform="matrix(0.01745241,-0.9998477,0.9998477,0.01745241,341.26431,697.52177)" />
    <use
       id="use4457"
       xlink:href="#path4336"
       x="0"
       y="0"
       width="600"
       height="600"
       transform="translate(-227.99685,129.64502)" />
    <use
       id="use4459"
       xlink:href="#path4336"
       x="0"
       y="0"
       width="600"
       height="600"
       transform="translate(-241.97606,148.40847)" />
    <use
       id="use4461"
       xlink:href="#path4336"
       x="0"
       y="0"
       width="600"
       height="600"
       transform="translate(-165.30892,13.896038)" />
    <use
       id="use4463"
       xlink:href="#path4336"
       x="0"
       y="0"
       width="600"
       height="600"
       transform="translate(-347.46067,-3.1255659)" />
    <use
       id="use4465"
       xlink:href="#path4336"
       x="0"
       y="0"
       width="600"
       height="600"
       transform="translate(-254.99223,20.85988)" />
    <use
       id="use4467"
       xlink:href="#path4336"
       x="0"
       y="0"
       width="600"
       height="600"
       transform="translate(-186.41667,146.85635)" />
    <use
       id="use4469"
       xlink:href="#path4336"
       x="0"
       y="0"
       width="600"
       height="600"
       transform="translate(-259.85133,70.085783)" />
    <use
       id="use4471"
       xlink:href="#path4336"
       x="0"
       y="0"
       width="600"
       height="600"
       transform="translate(-147.61008,69.985988)" />
    <use
       id="use4473"
       xlink:href="#path4336"
       x="0"
       y="0"
       width="600"
       height="600"
       transform="translate(38.924371,19.36422)" />
    <use
       id="use4475"
       xlink:href="#path4336"
       x="0"
       y="0"
       width="600"
       height="600"
       transform="translate(91.795685,96.50064)" />
    <use
       id="use4477"
       xlink:href="#path4336"
       x="0"
       y="0"
       width="600"
       height="600"
       transform="matrix(0.01745241,-0.9998477,0.9998477,0.01745241,292.52816,636.57348)" />
    <use
       id="use4479"
       xlink:href="#path4336"
       x="0"
       y="0"
       width="600"
       height="600"
       transform="translate(-165.98567,102.52895)" />
    <use
       id="use4481"
       xlink:href="#path4336"
       x="0"
       y="0"
       width="600"
       height="600"
       transform="matrix(0.01745241,-0.9998477,0.9998477,0.01745241,106.7221,613.05818)" />
    <use
       id="use4483"
       xlink:href="#path4336"
       x="0"
       y="0"
       width="600"
       height="600"
       transform="translate(-102.93956,131.6725)" />
    <use
       id="use4485"
       xlink:href="#path4336"
       x="0"
       y="0"
       width="600"
       height="600"
       transform="translate(-70.454928,113.52978)" />
    <use
       id="use4487"
       xlink:href="#path4336"
       x="0"
       y="0"
       width="600"
       height="600"
       transform="translate(-188.00955,-12.462085)" />
    <use
       id="use4489"
       xlink:href="#path4336"
       x="0"
       y="0"
       width="600"
       height="600"
       transform="translate(-383.84752,88.5755)" />
    <use
       id="use4491"
       xlink:href="#path4336"
       x="0"
       y="0"
       width="600"
       height="600"
       transform="matrix(0.01745241,-0.9998477,0.9998477,0.01745241,-80.678479,636.44353)" />
    <use
       id="use4493"
       xlink:href="#path4336"
       x="0"
       y="0"
       width="600"
       height="600"
       transform="translate(-201.4155,133.45386)" />
    <use
       id="use4495"
       xlink:href="#path4336"
       x="0"
       y="0"
       width="600"
       height="600"
       transform="translate(99.030775,105.99777)" />
    <use
       id="use4497"
       xlink:href="#path4336"
       x="0"
       y="0"
       width="600"
       height="600"
       transform="translate(-353.80697,148.843)" />
    <use
       id="use4499"
       xlink:href="#path4336"
       x="0"
       y="0"
       width="600"
       height="600"
       transform="translate(-369.75446,94.700609)" />
    <use
       id="use4501"
       xlink:href="#path4336"
       x="0"
       y="0"
       width="600"
       height="600"
       transform="matrix(-1,0,0,-1,569.62886,448.24174)" />
    <use
       id="use4503"
       xlink:href="#path4336"
       x="0"
       y="0"
       width="600"
       height="600"
       transform="translate(-14.573199,28.133186)" />
    <use
       id="use4505"
       xlink:href="#path4336"
       x="0"
       y="0"
       width="600"
       height="600"
       transform="translate(-370.58109,34.118612)" />
    <use
       id="use4507"
       xlink:href="#path4336"
       x="0"
       y="0"
       width="600"
       height="600"
       transform="translate(-385.5549,27.188741)" />
    <use
       id="use4509"
       xlink:href="#path4336"
       x="0"
       y="0"
       width="600"
       height="600"
       transform="matrix(-1,0,0,-1,991.27554,374.55346)" />
    <use
       id="use4511"
       xlink:href="#path4336"
       x="0"
       y="0"
       width="600"
       height="600"
       transform="translate(-7.6787912,54.564929)" />
    <use
       id="use4513"
       xlink:href="#path4336"
       x="0"
       y="0"
       width="600"
       height="600"
       transform="translate(-103.33733,149.86291)" />
    <use
       id="use4515"
       xlink:href="#path4336"
       x="0"
       y="0"
       width="600"
       height="600"
       transform="translate(-43.024399,-23.680402)" />
    <use
       id="use4517"
       xlink:href="#path4336"
       x="0"
       y="0"
       width="600"
       height="600"
       transform="translate(65.135801,55.952714)" />
    <use
       id="use4519"
       xlink:href="#path4336"
       x="0"
       y="0"
       width="600"
       height="600"
       transform="translate(-342.47778,-16.715742)" />
    <use
       id="use4521"
       xlink:href="#path4336"
       x="0"
       y="0"
       width="600"
       height="600"
       transform="translate(-137.64456,48.033019)" />
    <use
       id="use4523"
       xlink:href="#path4336"
       x="0"
       y="0"
       width="600"
       height="600"
       transform="translate(-271.28516,-17.119379)" />
    <use
       id="use4525"
       xlink:href="#path4336"
       x="0"
       y="0"
       width="600"
       height="600"
       transform="translate(-276.21996,82.509748)" />
    <use
       id="use4527"
       xlink:href="#path4336"
       x="0"
       y="0"
       width="600"
       height="600"
       transform="translate(-381.49831,115.73073)" />
    <use
       id="use4529"
       xlink:href="#path4336"
       x="0"
       y="0"
       width="600"
       height="600"
       transform="translate(-263.07669,129.77551)" />
    <use
       id="use4531"
       xlink:href="#path4336"
       x="0"
       y="0"
       width="600"
       height="600"
       transform="translate(-106.97005,12.189789)" />
    <use
       id="use4533"
       xlink:href="#path4336"
       x="0"
       y="0"
       width="600"
       height="600"
       transform="translate(-7.2962746,121.55625)" />
    <use
       id="use4535"
       xlink:href="#path4336"
       x="0"
       y="0"
       width="600"
       height="600"
       transform="translate(-419.05393,47.755909)" />
    <use
       id="use4537"
       xlink:href="#path4336"
       x="0"
       y="0"
       width="600"
       height="600"
       transform="translate(-2.4646969,79.740478)" />
    <use
       id="use4539"
       xlink:href="#path4336"
       x="0"
       y="0"
       width="600"
       height="600"
       transform="matrix(0.01745241,-0.9998477,0.9998477,0.01745241,-107.10216,652.25511)" />
    <use
       id="use4541"
       xlink:href="#path4336"
       x="0"
       y="0"
       width="600"
       height="600"
       transform="translate(-79.548821,45.825832)" />
    <use
       id="use4543"
       xlink:href="#path4336"
       x="0"
       y="0"
       width="600"
       height="600"
       transform="translate(-204.14411,14.562851)" />
    <use
       id="use4545"
       xlink:href="#path4336"
       x="0"
       y="0"
       width="600"
       height="600"
       transform="translate(-302.22734,127.32432)" />
    <use
       id="use4547"
       xlink:href="#path4336"
       x="0"
       y="0"
       width="600"
       height="600"
       transform="translate(41.641101,3.9796081)" />
    <use
       id="use4549"
       xlink:href="#path4336"
       x="0"
       y="0"
       width="600"
       height="600"
       transform="translate(-106.14361,115.05891)" />
    <use
       id="use4551"
       xlink:href="#path4336"
       x="0"
       y="0"
       width="600"
       height="600"
       transform="matrix(-1,0,0,-1,703.07703,408.21544)" />
    <use
       id="use4553"
       xlink:href="#path4336"
       x="0"
       y="0"
       width="600"
       height="600"
       transform="translate(-71.739689,19.039806)" />
    <use
       id="use4555"
       xlink:href="#path4336"
       x="0"
       y="0"
       width="600"
       height="600"
       transform="translate(-163.85367,154.73165)" />
    <use
       id="use4557"
       xlink:href="#path4336"
       x="0"
       y="0"
       width="600"
       height="600"
       transform="translate(-259.22574,-16.577493)" />
    <use
       id="use4559"
       xlink:href="#path4336"
       x="0"
       y="0"
       width="600"
       height="600"
       transform="translate(-413.88919,129.01444)" />
    <use
       id="use4561"
       xlink:href="#path4336"
       x="0"
       y="0"
       width="600"
       height="600"
       transform="matrix(-1,0,0,-1,854.4354,375.44752)" />
    <use
       id="use4563"
       xlink:href="#path4336"
       x="0"
       y="0"
       width="600"
       height="600"
       transform="translate(-310.77117,59.085792)" />
    <use
       id="use4565"
       xlink:href="#path4336"
       x="0"
       y="0"
       width="600"
       height="600"
       transform="translate(-183.83108,17.037867)" />
    <use
       id="use4567"
       xlink:href="#path4336"
       x="0"
       y="0"
       width="600"
       height="600"
       transform="translate(69.421428,-4.4529108)" />
    <use
       id="use4569"
       xlink:href="#path4336"
       x="0"
       y="0"
       width="600"
       height="600"
       transform="matrix(0.12186934,0.99254615,-0.99254615,0.12186934,276.95114,-216.98414)" />
    <use
       id="use4571"
       xlink:href="#path4336"
       x="0"
       y="0"
       width="600"
       height="600"
       transform="translate(26.984027,1.9134126)" />
    <use
       id="use4573"
       xlink:href="#path4336"
       x="0"
       y="0"
       width="600"
       height="600"
       transform="translate(-345.42691,92.237662)" />
    <use
       id="use4575"
       xlink:href="#path4336"
       x="0"
       y="0"
       width="600"
       height="600"
       transform="translate(-232.42935,-21.660717)" />
    <use
       id="use4577"
       xlink:href="#path4336"
       x="0"
       y="0"
       width="600"
       height="600"
       transform="translate(122.74019,28.596537)" />
    <use
       id="use4579"
       xlink:href="#path4336"
       x="0"
       y="0"
       width="600"
       height="600"
       transform="translate(-139.71407,151.9307)" />
    <use
       id="use4581"
       xlink:href="#path4336"
       x="0"
       y="0"
       width="600"
       height="600"
       transform="translate(-261.85439,128.89351)" />
    <use
       id="use4583"
       xlink:href="#path4336"
       x="0"
       y="0"
       width="600"
       height="600"
       transform="translate(63.394742,152.15055)" />
    <use
       id="use4585"
       xlink:href="#path4336"
       x="0"
       y="0"
       width="600"
       height="600"
       transform="matrix(0.12186934,0.99254615,-0.99254615,0.12186934,579.06679,-165.82233)" />
    <use
       id="use4587"
       xlink:href="#path4336"
       x="0"
       y="0"
       width="600"
       height="600"
       transform="translate(-136.81414,112.56292)" />
    <use
       id="use4589"
       xlink:href="#path4336"
       x="0"
       y="0"
       width="600"
       height="600"
       transform="translate(-135.85827,87.035701)" />
    <use
       id="use4591"
       xlink:href="#path4336"
       x="0"
       y="0"
       width="600"
       height="600"
       transform="translate(-24.809946,110.50355)" />
    <use
       id="use4593"
       xlink:href="#path4336"
       x="0"
       y="0"
       width="600"
       height="600"
       transform="translate(-305.82676,82.05088)" />
    <use
       id="use4595"
       xlink:href="#path4336"
       x="0"
       y="0"
       width="600"
       height="600"
       transform="translate(-5.7642087,105.49782)" />
    <use
       id="use4597"
       xlink:href="#path4336"
       x="0"
       y="0"
       width="600"
       height="600"
       transform="translate(-379.15822,6.3568037)" />
    <use
       id="use4599"
       xlink:href="#path4336"
       x="0"
       y="0"
       width="600"
       height="600"
       transform="translate(-105.14753,-7.3204938)" />
    <use
       id="use4601"
       xlink:href="#path4336"
       x="0"
       y="0"
       width="600"
       height="600"
       transform="translate(-307.19024,47.250511)" />
    <use
       id="use4603"
       xlink:href="#path4336"
       x="0"
       y="0"
       width="600"
       height="600"
       transform="translate(-139.99619,136.63427)" />
    <use
       id="use4605"
       xlink:href="#path4336"
       x="0"
       y="0"
       width="600"
       height="600"
       transform="translate(-197.82316,0.24298105)" />
    <use
       id="use4607"
       xlink:href="#path4336"
       x="0"
       y="0"
       width="600"
       height="600"
       transform="translate(30.003926,147.75487)" />
    <use
       id="use4609"
       xlink:href="#path4336"
       x="0"
       y="0"
       width="600"
       height="600"
       transform="translate(-19.872771,124.28837)" />
    <use
       id="use4611"
       xlink:href="#path4336"
       x="0"
       y="0"
       width="600"
       height="600"
       transform="translate(-346.84661,119.87997)" />
    <use
       id="use4613"
       xlink:href="#path4336"
       x="0"
       y="0"
       width="600"
       height="600"
       transform="translate(-164.89177,85.440753)" />
    <use
       id="use4615"
       xlink:href="#path4336"
       x="0"
       y="0"
       width="600"
       height="600"
       transform="translate(-212.66337,0.94719505)" />
    <use
       id="use4617"
       xlink:href="#path4336"
       x="0"
       y="0"
       width="600"
       height="600"
       transform="translate(-162.30791,28.840489)" />
    <use
       id="use4619"
       xlink:href="#path4336"
       x="0"
       y="0"
       width="600"
       height="600"
       transform="translate(-82.15914,68.029556)" />
    <use
       id="use4621"
       xlink:href="#path4336"
       x="0"
       y="0"
       width="600"
       height="600"
       transform="translate(-346.76965,75.272548)" />
    <use
       id="use4623"
       xlink:href="#path4336"
       x="0"
       y="0"
       width="600"
       height="600"
       transform="translate(-358.22949,48.34764)" />
    <use
       id="use4625"
       xlink:href="#path4336"
       x="0"
       y="0"
       width="600"
       height="600"
       transform="translate(-212.69914,25.796263)" />
    <use
       id="use4627"
       xlink:href="#path4336"
       x="0"
       y="0"
       width="600"
       height="600"
       transform="translate(70.848454,83.863068)" />
    <use
       id="use4629"
       xlink:href="#path4336"
       x="0"
       y="0"
       width="600"
       height="600"
       transform="matrix(-1,0,0,-1,723.53636,380.07049)"
       style="fill:url(#linearGradient5036);fill-opacity:1" />
    <use
       id="use4631"
       xlink:href="#path4336"
       x="0"
       y="0"
       width="600"
       height="600"
       transform="translate(-315.13138,137.19256)" />
    <use
       id="use4633"
       xlink:href="#path4336"
       x="0"
       y="0"
       width="600"
       height="600"
       transform="translate(108.42832,48.121812)" />
    <use
       id="use4635"
       xlink:href="#path4336"
       x="0"
       y="0"
       width="600"
       height="600"
       transform="translate(-296.0084,37.043431)" />
    <use
       id="use4637"
       xlink:href="#path4336"
       x="0"
       y="0"
       width="600"
       height="600"
       transform="translate(66.182919,100.88516)" />
    <use
       id="use4639"
       xlink:href="#path4336"
       x="0"
       y="0"
       width="600"
       height="600"
       transform="translate(-67.03061,56.225306)" />
    <use
       id="use4641"
       xlink:href="#path4336"
       x="0"
       y="0"
       width="600"
       height="600"
       transform="translate(-273.6504,129.16921)" />
    <use
       id="use4643"
       xlink:href="#path4336"
       x="0"
       y="0"
       width="600"
       height="600"
       transform="translate(103.77022,13.405586)" />
    <use
       id="use4645"
       xlink:href="#path4336"
       x="0"
       y="0"
       width="600"
       height="600"
       transform="translate(77.280921,47.764117)" />
    <use
       id="use4647"
       xlink:href="#path4336"
       x="0"
       y="0"
       width="600"
       height="600"
       transform="translate(-128.11496,-16.047751)" />
    <use
       id="use4649"
       xlink:href="#path4336"
       x="0"
       y="0"
       width="600"
       height="600"
       transform="matrix(0.12186934,0.99254615,-0.99254615,0.12186934,450.35611,-307.96861)" />
    <use
       id="use4651"
       xlink:href="#path4336"
       x="0"
       y="0"
       width="600"
       height="600"
       transform="translate(28.180724,97.480585)" />
    <use
       id="use4653"
       xlink:href="#path4336"
       x="0"
       y="0"
       width="600"
       height="600"
       transform="translate(5.1184941,152.35277)" />
    <use
       id="use4655"
       xlink:href="#path4336"
       x="0"
       y="0"
       width="600"
       height="600"
       transform="translate(-263.75858,109.55734)" />
    <use
       id="use4657"
       xlink:href="#path4336"
       x="0"
       y="0"
       width="600"
       height="600"
       transform="matrix(0.12186934,0.99254615,-0.99254615,0.12186934,290.59183,-289.59467)" />
    <use
       id="use4659"
       xlink:href="#path4336"
       x="0"
       y="0"
       width="600"
       height="600"
       transform="translate(84.621041,-27.944589)" />
    <use
       id="use4661"
       xlink:href="#path4336"
       x="0"
       y="0"
       width="600"
       height="600"
       transform="translate(-264.22546,13.863111)" />
    <use
       id="use4663"
       xlink:href="#path4336"
       x="0"
       y="0"
       width="600"
       height="600"
       transform="matrix(0.01745241,-0.9998477,0.9998477,0.01745241,-38.584453,748.22024)" />
    <use
       id="use4665"
       xlink:href="#path4336"
       x="0"
       y="0"
       width="600"
       height="600"
       transform="matrix(-1,0,0,-1,947.21813,366.73643)" />
    <use
       id="use4667"
       xlink:href="#path4336"
       x="0"
       y="0"
       width="600"
       height="600"
       transform="translate(68.855661,70.115803)" />
    <use
       id="use4669"
       xlink:href="#path4336"
       x="0"
       y="0"
       width="600"
       height="600"
       transform="translate(-29.702639,53.534579)" />
    <use
       id="use4671"
       xlink:href="#path4336"
       x="0"
       y="0"
       width="600"
       height="600"
       transform="translate(-262.8405,87.377279)" />
    <use
       id="use4673"
       xlink:href="#path4336"
       x="0"
       y="0"
       width="600"
       height="600"
       transform="translate(-117.31503,48.310631)" />
    <use
       id="use4675"
       xlink:href="#path4336"
       x="0"
       y="0"
       width="600"
       height="600"
       transform="translate(123.35495,61.838643)" />
    <use
       id="use4677"
       xlink:href="#path4336"
       x="0"
       y="0"
       width="600"
       height="600"
       transform="translate(-346.7444,73.904296)" />
  </g>
</svg>
