<?xml version="1.0" encoding="UTF-8" standalone="no"?>
<!-- Created with Inkscape (http://www.inkscape.org/) -->

<svg
   xmlns:dc="http://purl.org/dc/elements/1.1/"
   xmlns:cc="http://creativecommons.org/ns#"
   xmlns:rdf="http://www.w3.org/1999/02/22-rdf-syntax-ns#"
   xmlns:svg="http://www.w3.org/2000/svg"
   xmlns="http://www.w3.org/2000/svg"
   xmlns:xlink="http://www.w3.org/1999/xlink"
   xmlns:sodipodi="http://sodipodi.sourceforge.net/DTD/sodipodi-0.dtd"
   xmlns:inkscape="http://www.inkscape.org/namespaces/inkscape"
   sodipodi:docname="misc_gameover.svg"
   inkscape:version="0.48.4 r9939"
   version="1.1"
   id="svg2984"
   height="550"
   width="600"
   style="enable-background:new">
  <defs
     id="defs2986">
    <linearGradient
       inkscape:collect="always"
       id="linearGradient5030">
      <stop
         style="stop-color:#000000;stop-opacity:1;"
         offset="0"
         id="stop5032" />
      <stop
         style="stop-color:#000000;stop-opacity:0;"
         offset="1"
         id="stop5034" />
    </linearGradient>
    <filter
       inkscape:collect="always"
       id="filter3936"
       color-interpolation-filters="sRGB">
      <feBlend
         inkscape:collect="always"
         mode="darken"
         in2="BackgroundImage"
         id="feBlend3938" />
    </filter>
    <linearGradient
       inkscape:collect="always"
       xlink:href="#linearGradient5030"
       id="linearGradient5036"
       x1="429.72409"
       y1="163.76706"
       x2="413.12085"
       y2="159.99361"
       gradientUnits="userSpaceOnUse" />
  </defs>
  <sodipodi:namedview
     id="base"
     pagecolor="#000000"
     bordercolor="#666666"
     borderopacity="1.0"
     inkscape:pageopacity="1"
     inkscape:pageshadow="2"
     inkscape:zoom="0.66252119"
     inkscape:cx="147.58309"
     inkscape:cy="378.03281"
     inkscape:current-layer="layer2"
     inkscape:document-units="px"
     showgrid="true"
     showguides="true"
     inkscape:window-width="1024"
     inkscape:window-height="717"
     inkscape:window-x="0"
     inkscape:window-y="29"
     inkscape:window-maximized="1"
     inkscape:guide-bbox="true">
    <inkscape:grid
       type="xygrid"
       id="grid2994"
       empspacing="5"
       visible="true"
       enabled="true"
       snapvisiblegridlinesonly="true" />
    <sodipodi:guide
       orientation="0,1"
       position="1020,720"
       id="guide3772" />
  </sodipodi:namedview>
  <metadata
     id="metadata2989">
    <rdf:RDF>
      <cc:Work
         rdf:about="">
        <dc:format>image/svg+xml</dc:format>
        <dc:type
           rdf:resource="http://purl.org/dc/dcmitype/StillImage" />
        <dc:title />
      </cc:Work>
    </rdf:RDF>
  </metadata>
  <g
     id="layer1"
     inkscape:label="hid"
     inkscape:groupmode="layer"
     transform="translate(0,70)"
     style="display:none"
     sodipodi:insensitive="true" />
  <g
     inkscape:groupmode="layer"
     id="layer2"
     inkscape:label="vis"
     style="display:inline;filter:url(#filter3936)"
     transform="translate(0,-50)">
    <rect
       style="fill:#ffffff;fill-opacity:0.58039216;stroke:none"
       id="rect4223"
       width="600"
       height="550"
       x="0"
       y="50" />
    <g
       transform="scale(0.72901228,1.371719)"
       style="font-size:50.90019989px;font-style:normal;font-weight:normal;line-height:125%;letter-spacing:0px;word-spacing:0px;fill:#cc0000;fill-opacity:1;stroke:#2e3436;stroke-width:2;stroke-linecap:round;stroke-miterlimit:4;font-family:Sans"
       id="text3451">
      <path
         d="M 166.51624,180.1038 C 168.42496,180.1038 170.25916,179.95468 172.01883,179.65643 173.77842,179.3582 175.40385,178.97048 176.89511,178.49328 178.4161,177.98628 179.77311,177.41962 180.96613,176.79329 182.18888,176.13717 183.18799,175.46612 183.96348,174.78015 L 183.96348,166.05653 168.57412,166.05653 168.57412,156.30397 196.04233,156.30397 196.04233,179.47748 C 194.6107,180.93889 192.88089,182.34063 190.8529,183.68272 188.82479,184.99499 186.54323,186.15814 184.00821,187.17216 181.47309,188.15637 178.69943,188.94671 175.68722,189.5432 172.70475,190.13968 169.52846,190.43793 166.15835,190.43793 160.58117,190.43793 155.77945,189.63267 151.75319,188.02216 147.72689,186.38182 144.41639,184.11517 141.82169,181.22221 139.22696,178.29943 137.3033,174.83981 136.05068,170.84334 134.82788,166.8469 134.21648,162.47764 134.21648,157.73554 134.21648,152.81456 134.87262,148.37074 136.18489,144.40406 137.49715,140.43748 139.48047,137.06733 142.13485,134.29361 144.81902,131.49018 148.17426,129.34283 152.20056,127.85156 156.25664,126.33058 161.01362,125.57006 166.4715,125.57 170.4381,125.57006 173.95737,125.95778 177.02932,126.73315 180.131,127.50864 182.8301,128.61214 185.12663,130.04365 187.45287,131.47527 189.39145,133.20508 190.94237,135.23308 192.523,137.23136 193.77562,139.4831 194.70024,141.98829 L 182.53191,145.65669 C 181.99502,144.34446 181.27924,143.10675 180.38456,141.94356 179.48978,140.75063 178.37137,139.72169 177.02932,138.85674 175.717,137.96206 174.18105,137.26119 172.42146,136.75412 170.69161,136.21734 168.70829,135.94892 166.4715,135.94887 163.19079,135.94892 160.35749,136.47084 157.97157,137.51464 155.5856,138.52872 153.61719,139.99011 152.06635,141.89882 150.51546,143.80762 149.36723,146.1041 148.62164,148.78824 147.87601,151.44265 147.50321,154.42508 147.50323,157.73554 147.50321,161.01625 147.87601,164.0285 148.62164,166.77232 149.39705,169.51618 150.5602,171.8723 152.11109,173.84068 153.69175,175.8091 155.67507,177.34506 158.06104,178.44854 160.44696,179.55205 163.26536,180.1038 166.51624,180.1038"
         style="font-size:91.62036133px;font-variant:normal;font-weight:bold;font-stretch:normal;fill:#cc0000;stroke:#2e3436;font-family:Liberation Sans;-inkscape-font-specification:Liberation Sans Bold"
         id="path4410"
         inkscape:connector-curvature="0" />
      <path
         d="M 252.36559,189.5432 246.77353,173.43806 222.75002,173.43806 217.15796,189.5432 203.96069,189.5432 226.95526,126.50946 242.52356,126.50946 265.42865,189.5432 252.36559,189.5432 M 237.60254,145.38827 C 237.24462,144.34446 236.88672,143.30061 236.52887,142.25671 236.20077,141.18308 235.90252,140.21379 235.63414,139.34884 235.39551,138.45416 235.18674,137.72347 235.00783,137.15675 234.85867,136.59014 234.7692,136.27699 234.73941,136.21728 234.70955,136.30681 234.62008,136.63488 234.47099,137.20149 234.32183,137.7682 234.11306,138.48398 233.84468,139.34884 233.60605,140.21379 233.30781,141.18308 232.94995,142.25671 232.62185,143.30061 232.27887,144.34446 231.92101,145.38827 L 225.70263,163.50655 243.82092,163.50655 237.60254,145.38827"
         style="font-size:91.62036133px;font-variant:normal;font-weight:bold;font-stretch:normal;fill:#cc0000;stroke:#2e3436;font-family:Liberation Sans;-inkscape-font-specification:Liberation Sans Bold"
         id="path4412"
         inkscape:connector-curvature="0" />
      <path
         d="M 326.35977,189.5432 326.35977,151.33822 C 326.35971,149.81722 326.37463,148.25145 326.40451,146.64089 326.4641,145.03042 326.52375,143.55412 326.58345,142.21198 326.67287,140.63133 326.74743,139.09538 326.80714,137.60412 326.18077,139.96029 325.58428,142.19711 325.01768,144.31459 324.77902,145.20937 324.52552,146.13392 324.25716,147.08825 323.98868,148.04268 323.72026,148.96723 323.4519,149.86192 323.21325,150.75669 322.97465,151.59177 322.73611,152.36716 322.49747,153.14263 322.2887,153.81368 322.1098,154.38031 L 310.74673,189.5432 301.35207,189.5432 289.98899,154.38031 C 289.81003,153.81368 289.60126,153.14263 289.36268,152.36716 289.15389,151.59177 288.9153,150.75669 288.6469,149.86192 288.40828,148.96723 288.15478,148.04268 287.88638,147.08825 287.61794,146.13392 287.34952,145.20937 287.08112,144.31459 286.48462,142.19711 285.8583,139.96029 285.20219,137.60412 285.29164,139.33398 285.38112,141.03396 285.47061,142.70408 285.53024,144.13569 285.58989,145.64182 285.64955,147.22246 285.70918,148.80319 285.73901,150.17511 285.73903,151.33822 L 285.73903,189.5432 274.01806,189.5432 274.01806,126.50946 291.68898,126.50946 302.96258,161.76183 C 303.26079,162.68641 303.57394,163.81973 303.90205,165.1618 304.2599,166.50392 304.60288,167.80128 304.93099,169.05388 305.28884,170.51529 305.67656,172.03633 306.09414,173.617 306.51164,172.06615 306.91427,170.57494 307.30202,169.14335 307.48093,168.51706 307.65987,167.87584 307.83886,167.21968 308.01776,166.56357 308.19671,165.92235 308.3757,165.29601 308.5546,164.66973 308.73355,164.07324 308.91253,163.50655 309.09144,162.93992 309.25547,162.4329 309.40464,161.98551 L 320.49929,126.50946 338.08074,126.50946 338.08074,189.5432 326.35977,189.5432"
         style="font-size:91.62036133px;font-variant:normal;font-weight:bold;font-stretch:normal;fill:#cc0000;stroke:#2e3436;font-family:Liberation Sans;-inkscape-font-specification:Liberation Sans Bold"
         id="path4414"
         inkscape:connector-curvature="0" />
      <path
         d="M 350.428,189.5432 350.428,126.50946 399.99605,126.50946 399.99605,136.70939 363.62527,136.70939 363.62527,152.54611 397.26712,152.54611 397.26712,162.74603 363.62527,162.74603 363.62527,179.34327 401.83025,179.34327 401.83025,189.5432 350.428,189.5432"
         style="font-size:91.62036133px;font-variant:normal;font-weight:bold;font-stretch:normal;fill:#cc0000;stroke:#2e3436;font-family:Liberation Sans;-inkscape-font-specification:Liberation Sans Bold"
         id="path4416"
         inkscape:connector-curvature="0" />
      <path
         d="M 498.32691,157.73554 C 498.32684,162.65659 497.59615,167.13023 496.13482,171.15649 494.67336,175.18279 492.57075,178.6275 489.82697,181.49063 487.08308,184.35377 483.72784,186.56077 479.76126,188.11163 475.8244,189.66249 471.36567,190.43793 466.38504,190.43793 461.10611,190.43793 456.48334,189.63267 452.51673,188.02216 448.5799,186.38182 445.28431,184.11517 442.62996,181.22221 439.97559,178.29943 437.97736,174.83981 436.63527,170.84334 435.32299,166.8469 434.66686,162.47764 434.66686,157.73554 434.66686,152.81456 435.35282,148.37074 436.72474,144.40406 438.12648,140.43748 440.16944,137.06733 442.85364,134.29361 445.56764,131.49018 448.89305,129.34283 452.82988,127.85156 456.79649,126.33058 461.3447,125.57006 466.47452,125.57 471.60426,125.57006 476.13756,126.33058 480.07442,127.85156 484.041,129.37266 487.36641,131.53492 490.05066,134.33835 492.76461,137.14189 494.82249,140.52695 496.22429,144.49354 497.62597,148.43039 498.32684,152.84439 498.32691,157.73554 M 484.86122,157.73554 C 484.86117,154.42508 484.45854,151.44265 483.65334,148.78824 482.87785,146.1041 481.7147,143.80762 480.16389,141.89882 478.61297,139.99011 476.68931,138.52872 474.39288,137.51464 472.12619,136.47084 469.48674,135.94892 466.47452,135.94887 463.40258,135.94892 460.70348,136.47084 458.37721,137.51464 456.08071,138.52872 454.15704,139.99011 452.6062,141.89882 451.05532,143.80762 449.89217,146.1041 449.11675,148.78824 448.3413,151.44265 447.95359,154.42508 447.9536,157.73554 447.95359,161.01625 448.3413,164.0285 449.11675,166.77232 449.92199,169.48635 451.10005,171.82756 452.65094,173.79595 454.20178,175.76437 456.12545,177.30032 458.42195,178.40381 460.71839,179.50732 463.37275,180.05907 466.38504,180.05906 469.60603,180.05907 472.37969,179.50732 474.70603,178.40381 477.03229,177.2705 478.94104,175.71963 480.43231,173.75121 481.9533,171.753 483.07171,169.39688 483.78754,166.68284 484.50328,163.93903 484.86117,160.9566 484.86122,157.73554"
         style="font-size:91.62036133px;font-variant:normal;font-weight:bold;font-stretch:normal;fill:#cc0000;stroke:#2e3436;font-family:Liberation Sans;-inkscape-font-specification:Liberation Sans Bold"
         id="path4418"
         inkscape:connector-curvature="0" />
      <path
         d="M 539.43973,189.5432 526.06352,189.5432 502.7558,126.50946 516.53464,126.50946 529.50823,166.996 C 529.92574,168.33812 530.32837,169.71003 530.71611,171.11176 531.1038,172.51352 531.46169,173.79596 531.78979,174.9591 532.14765,176.33103 532.49063,177.6433 532.81873,178.89591 533.11694,177.67312 533.4301,176.39068 533.75819,175.04857 534.05641,173.91526 534.39939,172.64773 534.78713,171.24597 535.20464,169.81442 535.62218,168.39776 536.03976,166.996 L 548.96861,126.50946 562.61324,126.50946 539.43973,189.5432"
         style="font-size:91.62036133px;font-variant:normal;font-weight:bold;font-stretch:normal;fill:#cc0000;stroke:#2e3436;font-family:Liberation Sans;-inkscape-font-specification:Liberation Sans Bold"
         id="path4420"
         inkscape:connector-curvature="0" />
      <path
         d="M 569.45794,189.5432 569.45794,126.50946 619.02599,126.50946 619.02599,136.70939 582.65521,136.70939 582.65521,152.54611 616.29706,152.54611 616.29706,162.74603 582.65521,162.74603 582.65521,179.34327 620.86019,179.34327 620.86019,189.5432 569.45794,189.5432"
         style="font-size:91.62036133px;font-variant:normal;font-weight:bold;font-stretch:normal;fill:#cc0000;stroke:#2e3436;font-family:Liberation Sans;-inkscape-font-specification:Liberation Sans Bold"
         id="path4422"
         inkscape:connector-curvature="0" />
      <path
         d="M 673.9624,189.5432 659.33356,165.60917 643.85473,165.60917 643.85473,189.5432 630.65747,189.5432 630.65747,126.50946 662.15196,126.50946 C 666.08874,126.50953 669.51853,126.95689 672.44136,127.85156 675.39392,128.71652 677.85442,129.96915 679.82288,131.60942 681.79123,133.21999 683.25262,135.1884 684.20706,137.51464 685.1912,139.81117 685.68331,142.40588 685.68337,145.29879 685.68331,147.65496 685.32541,149.81722 684.60969,151.78559 683.92367,153.72421 682.95438,155.45402 681.70182,156.97502 680.47896,158.49609 679.01757,159.77854 677.31764,160.82236 675.6176,161.83642 673.76849,162.58202 671.77031,163.05919 L 688.81492,189.5432 673.9624,189.5432 M 672.39662,145.83563 C 672.39658,142.76377 671.38255,140.48221 669.35454,138.99095 667.35627,137.49978 664.49314,136.75418 660.76513,136.75412 L 643.85473,136.75412 643.85473,155.36451 661.12303,155.36451 C 663.09139,155.36454 664.77647,155.14086 666.17825,154.69346 667.60978,154.21631 668.77292,153.56017 669.6677,152.72505 670.59221,151.86019 671.27816,150.84616 671.72558,149.68297 672.17289,148.51986 672.39658,147.23742 672.39662,145.83563"
         style="font-size:91.62036133px;font-variant:normal;font-weight:bold;font-stretch:normal;fill:#cc0000;stroke:#2e3436;font-family:Liberation Sans;-inkscape-font-specification:Liberation Sans Bold"
         id="path4424"
         inkscape:connector-curvature="0" />
    </g>
  </g>
</svg>
