<?xml version="1.0" encoding="UTF-8" standalone="no"?>
<!-- Created with Inkscape (http://www.inkscape.org/) -->

<svg
   xmlns:dc="http://purl.org/dc/elements/1.1/"
   xmlns:cc="http://creativecommons.org/ns#"
   xmlns:rdf="http://www.w3.org/1999/02/22-rdf-syntax-ns#"
   xmlns:svg="http://www.w3.org/2000/svg"
   xmlns="http://www.w3.org/2000/svg"
   xmlns:xlink="http://www.w3.org/1999/xlink"
   xmlns:sodipodi="http://sodipodi.sourceforge.net/DTD/sodipodi-0.dtd"
   xmlns:inkscape="http://www.inkscape.org/namespaces/inkscape"
   sodipodi:docname="misc_go.svg"
   inkscape:version="0.48.4 r9939"
   version="1.1"
   id="svg2984"
   height="550"
   width="600"
   style="enable-background:new">
  <defs
     id="defs2986">
    <linearGradient
       inkscape:collect="always"
       id="linearGradient5030">
      <stop
         style="stop-color:#000000;stop-opacity:1;"
         offset="0"
         id="stop5032" />
      <stop
         style="stop-color:#000000;stop-opacity:0;"
         offset="1"
         id="stop5034" />
    </linearGradient>
    <filter
       inkscape:collect="always"
       id="filter3936"
       color-interpolation-filters="sRGB">
      <feBlend
         inkscape:collect="always"
         mode="darken"
         in2="BackgroundImage"
         id="feBlend3938" />
    </filter>
    <linearGradient
       inkscape:collect="always"
       xlink:href="#linearGradient5030"
       id="linearGradient5036"
       x1="429.72409"
       y1="163.76706"
       x2="413.12085"
       y2="159.99361"
       gradientUnits="userSpaceOnUse" />
  </defs>
  <sodipodi:namedview
     id="base"
     pagecolor="#000000"
     bordercolor="#666666"
     borderopacity="1.0"
     inkscape:pageopacity="1"
     inkscape:pageshadow="2"
     inkscape:zoom="1.246865"
     inkscape:cx="202.31135"
     inkscape:cy="340.3877"
     inkscape:current-layer="layer2"
     inkscape:document-units="px"
     showgrid="true"
     showguides="true"
     inkscape:window-width="1024"
     inkscape:window-height="717"
     inkscape:window-x="0"
     inkscape:window-y="29"
     inkscape:window-maximized="1"
     inkscape:guide-bbox="true"
     fit-margin-top="0"
     fit-margin-left="0"
     fit-margin-right="0"
     fit-margin-bottom="0">
    <inkscape:grid
       type="xygrid"
       id="grid2994"
       empspacing="5"
       visible="true"
       enabled="true"
       snapvisiblegridlinesonly="true"
       originx="0px"
       originy="0px" />
    <sodipodi:guide
       orientation="0,1"
       position="1020,720"
       id="guide3772" />
  </sodipodi:namedview>
  <metadata
     id="metadata2989">
    <rdf:RDF>
      <cc:Work
         rdf:about="">
        <dc:format>image/svg+xml</dc:format>
        <dc:type
           rdf:resource="http://purl.org/dc/dcmitype/StillImage" />
        <dc:title />
      </cc:Work>
    </rdf:RDF>
  </metadata>
  <g
     id="layer1"
     inkscape:label="hid"
     inkscape:groupmode="layer"
     transform="translate(0,70)"
     style="display:none"
     sodipodi:insensitive="true" />
  <g
     inkscape:groupmode="layer"
     id="layer2"
     inkscape:label="vis"
     style="display:inline;filter:url(#filter3936)"
     transform="translate(0,-50)">
    <rect
       style="fill:#ffffff;fill-opacity:0.58039216;stroke:none"
       id="rect4223"
       width="600"
       height="550"
       x="0"
       y="50" />
    <g
       transform="scale(0.72901228,1.371719)"
       style="font-size:50.90019989px;font-style:normal;font-weight:normal;line-height:125%;letter-spacing:0px;word-spacing:0px;fill:#3171ce;fill-opacity:1;stroke:#002533;stroke-width:2;stroke-linecap:round;stroke-miterlimit:4;stroke-opacity:1;font-family:Sans"
       id="text3451">
      <path
         d="M 363.58054,180.1038 C 365.48926,180.1038 367.32346,179.95468 369.08313,179.65643 370.84272,179.3582 372.46815,178.97048 373.95941,178.49328 375.4804,177.98628 376.83741,177.41962 378.03043,176.79329 379.25318,176.13717 380.25229,175.46612 381.02778,174.78015 L 381.02778,166.05653 365.63842,166.05653 365.63842,156.30397 393.10663,156.30397 393.10663,179.47748 C 391.675,180.93889 389.94519,182.34063 387.9172,183.68272 385.88909,184.99499 383.60753,186.15814 381.07251,187.17216 378.5374,188.15637 375.76373,188.94671 372.75152,189.5432 369.76905,190.13968 366.59276,190.43793 363.22265,190.43793 357.64547,190.43793 352.84375,189.63267 348.81749,188.02216 344.79119,186.38182 341.48069,184.11517 338.88599,181.22221 336.29126,178.29943 334.3676,174.83981 333.11498,170.84334 331.89218,166.8469 331.28078,162.47764 331.28079,157.73554 331.28078,152.81456 331.93692,148.37074 333.24919,144.40406 334.56146,140.43748 336.54477,137.06733 339.19915,134.29361 341.88332,131.49018 345.23856,129.34283 349.26486,127.85156 353.32094,126.33058 358.07792,125.57006 363.5358,125.57 367.5024,125.57006 371.02167,125.95778 374.09362,126.73315 377.1953,127.50864 379.8944,128.61214 382.19093,130.04365 384.51717,131.47527 386.45575,133.20508 388.00667,135.23308 389.5873,137.23136 390.83992,139.4831 391.76454,141.98829 L 379.59621,145.65669 C 379.05932,144.34446 378.34354,143.10675 377.44886,141.94356 376.55408,140.75063 375.43567,139.72169 374.09362,138.85674 372.7813,137.96206 371.24535,137.26119 369.48576,136.75412 367.75591,136.21734 365.77259,135.94892 363.5358,135.94887 360.2551,135.94892 357.42179,136.47084 355.03587,137.51464 352.6499,138.52872 350.68149,139.99011 349.13065,141.89882 347.57976,143.80762 346.43153,146.1041 345.68594,148.78824 344.94031,151.44265 344.56751,154.42508 344.56753,157.73554 344.56751,161.01625 344.94031,164.0285 345.68594,166.77232 346.46135,169.51618 347.6245,171.8723 349.17539,173.84068 350.75605,175.8091 352.73937,177.34506 355.12534,178.44854 357.51126,179.55205 360.32966,180.1038 363.58054,180.1038"
         style="font-size:91.62036133px;font-variant:normal;font-weight:bold;font-stretch:normal;fill:#3171ce;stroke:#002533;font-family:Liberation Sans;-inkscape-font-specification:Liberation Sans Bold"
         id="path4935"
         inkscape:connector-curvature="0" />
      <path
         d="M 466.16134,157.73554 C 466.16128,162.65659 465.43058,167.13023 463.96925,171.15649 462.5078,175.18279 460.40518,178.6275 457.66141,181.49063 454.91751,184.35377 451.56228,186.56077 447.59569,188.11163 443.65884,189.66249 439.2001,190.43793 434.21948,190.43793 428.94054,190.43793 424.31777,189.63267 420.35116,188.02216 416.41433,186.38182 413.11875,184.11517 410.4644,181.22221 407.81002,178.29943 405.81179,174.83981 404.4697,170.84334 403.15743,166.8469 402.50129,162.47764 402.5013,157.73554 402.50129,152.81456 403.18725,148.37074 404.55918,144.40406 405.96091,140.43748 408.00388,137.06733 410.68808,134.29361 413.40208,131.49018 416.72749,129.34283 420.66432,127.85156 424.63093,126.33058 429.17914,125.57006 434.30895,125.57 439.4387,125.57006 443.97199,126.33058 447.90885,127.85156 451.87543,129.37266 455.20084,131.53492 457.88509,134.33835 460.59904,137.14189 462.65692,140.52695 464.05873,144.49354 465.4604,148.43039 466.16128,152.84439 466.16134,157.73554 M 452.69566,157.73554 C 452.6956,154.42508 452.29297,151.44265 451.48777,148.78824 450.71229,146.1041 449.54914,143.80762 447.99832,141.89882 446.44741,139.99011 444.52374,138.52872 442.22731,137.51464 439.96062,136.47084 437.32117,135.94892 434.30895,135.94887 431.23701,135.94892 428.53791,136.47084 426.21164,137.51464 423.91515,138.52872 421.99148,139.99011 420.44064,141.89882 418.88975,143.80762 417.7266,146.1041 416.95119,148.78824 416.17574,151.44265 415.78802,154.42508 415.78804,157.73554 415.78802,161.01625 416.17574,164.0285 416.95119,166.77232 417.75643,169.48635 418.93449,171.82756 420.48537,173.79595 422.03621,175.76437 423.95988,177.30032 426.25638,178.40381 428.55283,179.50732 431.20719,180.05907 434.21948,180.05906 437.44047,180.05907 440.21413,179.50732 442.54047,178.40381 444.86672,177.2705 446.77548,175.71963 448.26674,173.75121 449.78773,171.753 450.90614,169.39688 451.62198,166.68284 452.33771,163.93903 452.6956,160.9566 452.69566,157.73554"
         style="font-size:91.62036133px;font-variant:normal;font-weight:bold;font-stretch:normal;fill:#3171ce;stroke:#002533;font-family:Liberation Sans;-inkscape-font-specification:Liberation Sans Bold"
         id="path4937"
         inkscape:connector-curvature="0" />
      <path
         d="M 490.31905,170.48545 480.02966,170.48545 478.59809,126.50946 491.75062,126.50946 490.31905,170.48545 M 478.59809,189.5432 478.59809,177.46434 491.4822,177.46434 491.4822,189.5432 478.59809,189.5432"
         style="font-size:91.62036133px;font-variant:normal;font-weight:bold;font-stretch:normal;fill:#3171ce;stroke:#002533;font-family:Liberation Sans;-inkscape-font-specification:Liberation Sans Bold"
         id="path4939"
         inkscape:connector-curvature="0" />
    </g>
  </g>
</svg>
