<?xml version="1.0" encoding="UTF-8" standalone="no"?>
<!-- Created with Inkscape (http://www.inkscape.org/) -->

<svg
   xmlns:dc="http://purl.org/dc/elements/1.1/"
   xmlns:cc="http://creativecommons.org/ns#"
   xmlns:rdf="http://www.w3.org/1999/02/22-rdf-syntax-ns#"
   xmlns:svg="http://www.w3.org/2000/svg"
   xmlns="http://www.w3.org/2000/svg"
   xmlns:sodipodi="http://sodipodi.sourceforge.net/DTD/sodipodi-0.dtd"
   xmlns:inkscape="http://www.inkscape.org/namespaces/inkscape"
   width="60"
   height="60"
   id="svg2"
   version="1.1"
   inkscape:version="0.48.4 r9939"
   sodipodi:docname="misc_turt_crunch.svg"
   inkscape:export-filename="/users/my/prog/fishc/data/fish1.png"
   inkscape:export-xdpi="90"
   inkscape:export-ydpi="90">
  <defs
     id="defs4" />
  <sodipodi:namedview
     id="base"
     pagecolor="#ffffff"
     bordercolor="#666666"
     borderopacity="1.0"
     inkscape:pageopacity="0.0"
     inkscape:pageshadow="2"
     inkscape:zoom="10.16214"
     inkscape:cx="36.770263"
     inkscape:cy="33.978706"
     inkscape:document-units="px"
     inkscape:current-layer="layer1"
     showgrid="true"
     inkscape:window-width="1024"
     inkscape:window-height="718"
     inkscape:window-x="0"
     inkscape:window-y="28"
     inkscape:window-maximized="1">
    <inkscape:grid
       type="xygrid"
       id="grid2987"
       empspacing="5"
       visible="true"
       enabled="true"
       snapvisiblegridlinesonly="true" />
  </sodipodi:namedview>
  <metadata
     id="metadata7">
    <rdf:RDF>
      <cc:Work
         rdf:about="">
        <dc:format>image/svg+xml</dc:format>
        <dc:type
           rdf:resource="http://purl.org/dc/dcmitype/StillImage" />
        <dc:title />
      </cc:Work>
    </rdf:RDF>
  </metadata>
  <g
     inkscape:label="Layer 1"
     inkscape:groupmode="layer"
     id="layer1"
     transform="translate(0,-992.3622)">
    <g
       id="g4049"
       transform="matrix(0.94230697,0.33475001,-0.33475001,0.94230697,349.12473,38.538233)">
      <g
         id="g3329">
        <path
           style="fill:#ff6c00;fill-opacity:1;stroke:#632700;stroke-width:1;stroke-linecap:round;stroke-linejoin:round;stroke-miterlimit:4;stroke-opacity:1;stroke-dasharray:none"
           d="M 17.343755,39.906235 14.687506,35.468735 C 14.51596,35.578516 14.203161,35.824449 14.031256,35.906235 12.754199,36.513792 8.8848717,36.375198 9.0000053,36.999985 9.2424006,38.315206 8.0798932,38.180466 7.2812553,38.812485 6.4826174,39.444504 8.5874442,39.288318 7.1562553,41.062485 6.6204464,41.726746 8.8521983,41.499371 9.1250053,43.718735 9.3184858,45.292622 14.48788,41.024654 17.343755,39.906235 z"
           id="path3608"
           transform="matrix(0.94230697,-0.33475001,0.33475001,0.94230697,-9.690084,1015.6645)"
           inkscape:connector-curvature="0"
           sodipodi:nodetypes="ccccsccc" />
        <path
           style="fill:#ff6c00;fill-opacity:1;stroke:#632700;stroke-width:1;stroke-linecap:round;stroke-linejoin:round;stroke-miterlimit:4;stroke-opacity:1;stroke-dasharray:none"
           d="M 28.437505,44.437485 24.000005,39.999985 C 21.843778,41.389061 18.753494,43.050149 15.968755,44.374985 12.989986,45.792117 21.569018,46.469743 28.437505,44.437485 z"
           id="path3604"
           transform="matrix(0.94230697,-0.33475001,0.33475001,0.94230697,-9.690084,1015.6645)"
           inkscape:connector-curvature="0"
           sodipodi:nodetypes="ccsc" />
        <path
           style="fill:#ff6c00;fill-opacity:1;stroke:#632700;stroke-width:1;stroke-linecap:round;stroke-linejoin:round;stroke-miterlimit:4;stroke-opacity:1;stroke-dasharray:none"
           d="M 48.062505,29.437485 45.187505,31.374985 48.531255,34.718735 C 49.021182,34.246167 49.511378,33.880778 50.000005,32.999985 50.918301,31.344682 49.70419,30.093624 48.062505,29.437485 z"
           id="path3602"
           transform="matrix(0.94230697,-0.33475001,0.33475001,0.94230697,-9.690084,1015.6645)"
           inkscape:connector-curvature="0"
           sodipodi:nodetypes="cccsc" />
        <path
           style="fill:#ff6c00;fill-opacity:1;stroke:#632700;stroke-width:1;stroke-linecap:round;stroke-linejoin:round;stroke-miterlimit:4;stroke-opacity:1;stroke-dasharray:none"
           d="M 38.031255,13.843735 40.125005,15.937485 43.000005,13.999985 C 42.039898,13.616255 40.958129,13.394035 40.000005,13.531235 38.652832,13.724139 38.743427,13.708016 38.031255,13.843735 z"
           id="path3600"
           transform="matrix(0.94230697,-0.33475001,0.33475001,0.94230697,-9.690084,1015.6645)"
           inkscape:connector-curvature="0"
           sodipodi:nodetypes="cccsc" />
        <path
           style="fill:#ff6c00;fill-opacity:1;stroke:#632700;stroke-width:1;stroke-linecap:round;stroke-linejoin:round;stroke-miterlimit:4;stroke-opacity:1;stroke-dasharray:none"
           d="M 39.000005,40.999985 32.281255,32.343735 26.062505,33.781235 25.156255,36.531235 C 26.800422,36.952922 28.481433,37.218397 30.093755,37.249985 30.70837,37.262027 30.821771,37.462487 30.718755,37.749985 L 30.718755,37.749985 C 30.547062,38.229148 29.606805,39.003018 28.156255,39.937485 L 32.593755,44.374985 C 34.045428,43.945462 35.452516,43.444418 36.625005,42.749985 37.72604,42.097875 38.276515,41.575272 39.000005,40.999985 z"
           id="path3654"
           transform="matrix(0.94230697,-0.33475001,0.33475001,0.94230697,-9.690084,1015.6645)"
           inkscape:connector-curvature="0"
           sodipodi:nodetypes="ccccsccccsc" />
        <path
           style="fill:#ff6c00;fill-opacity:1;stroke:#632700;stroke-width:1;stroke-linecap:round;stroke-linejoin:round;stroke-miterlimit:4;stroke-opacity:1;stroke-dasharray:none"
           d="M 41.000005,30.999985 35.406255,32.281235 42.125005,40.937485 C 46.288054,37.627212 45.227873,35.513561 46.156255,34.968735 46.212538,34.436672 42.878285,32.224408 41.000005,30.999985 z"
           id="path3652"
           transform="matrix(0.94230697,-0.33475001,0.33475001,0.94230697,-9.690084,1015.6645)"
           inkscape:connector-curvature="0"
           sodipodi:nodetypes="ccccc" />
        <path
           style="fill:#ff6c00;fill-opacity:1;stroke:#632700;stroke-width:1;stroke-linecap:round;stroke-linejoin:round;stroke-miterlimit:4;stroke-opacity:1;stroke-dasharray:none"
           d="M 28.000005,22.999985 26.000005,28.999985 25.000005,31.937485 31.218755,30.499985 31.218755,30.499985 36.812505,29.218735 C 36.239957,28.845499 35.230492,28.163152 35.218755,28.156235 L 30.125005,24.749985 30.000005,24.999985 29.000005,23.999985 z"
           id="path3650"
           transform="matrix(0.94230697,-0.33475001,0.33475001,0.94230697,-9.690084,1015.6645)"
           inkscape:connector-curvature="0"
           sodipodi:nodetypes="ccccccccccc" />
        <path
           style="fill:#ff6c00;fill-opacity:1;stroke:#632700;stroke-width:1;stroke-linecap:round;stroke-linejoin:round;stroke-miterlimit:4;stroke-opacity:1;stroke-dasharray:none"
           d="M 23.216129,1036.9722 C 22.577072,1036.7841 21.834636,1036.617 21.08317,1036.5692 20.240858,1036.5156 19.692055,1036.5183 19.540307,1036.5204 19.131706,1038.8972 18.949802,1041.5114 19.184885,1044.1084 L 25.182374,1044.0008 22.839124,1037.4046 z"
           id="path3648"
           inkscape:connector-curvature="0"
           sodipodi:nodetypes="csccccc" />
        <path
           style="fill:#ff6c00;fill-opacity:1;stroke:#632700;stroke-width:1;stroke-linecap:round;stroke-linejoin:round;stroke-miterlimit:4;stroke-opacity:1;stroke-dasharray:none"
           d="M 13.000005,21.999985 C 10.22006,23.048979 8.8693203,23.982248 7.7812553,24.749985 L 7.7812553,24.749985 C 7.4386293,24.991741 7.0146133,25.279401 6.7187553,25.468735 L 9.3750053,29.906235 C 10.120996,29.61409 10.768597,29.506833 11.062505,29.812485 12.15768,30.951431 13.821937,32.122534 15.718755,33.187485 15.767601,33.043798 15.948781,32.525758 16.281255,31.749985 16.577871,31.057882 16.983837,30.414207 17.375005,29.874985 z"
           id="path3646"
           transform="matrix(0.94230697,-0.33475001,0.33475001,0.94230697,-9.690084,1015.6645)"
           inkscape:connector-curvature="0"
           sodipodi:nodetypes="cccccscscc" />
        <path
           style="fill:#ff6c00;fill-opacity:1;stroke:#632700;stroke-width:1;stroke-linecap:round;stroke-linejoin:round;stroke-miterlimit:4;stroke-opacity:1;stroke-dasharray:none"
           d="M 22.562505,14.562485 C 21.748837,14.658538 20.930785,14.667683 20.125005,14.812485 17.153532,15.34648 15.070959,15.973236 13.343755,16.624985 L 18.000005,24.999985 23.000005,24.999985 23.000005,24.999985 25.000005,24.999985 27.000005,18.999985 z"
           id="path3644"
           transform="matrix(0.94230697,-0.33475001,0.33475001,0.94230697,-9.690084,1015.6645)"
           inkscape:connector-curvature="0"
           sodipodi:nodetypes="csccccccc" />
        <path
           style="fill:#ff6c00;fill-opacity:1;stroke:#632700;stroke-width:1;stroke-linecap:round;stroke-linejoin:round;stroke-miterlimit:4;stroke-opacity:1;stroke-dasharray:none"
           d="M 42.656255,18.374985 40.812505,27.562485 43.000005,28.999985 47.312505,28.281235 C 47.489186,28.134534 47.664832,28.061395 47.843755,27.906235 49.292512,26.649907 51.687526,28.412492 54.156255,26.031235 L 50.812505,22.687485 48.718755,20.593735 C 45.884477,21.133866 46.070635,21.205952 43.718755,18.999985 43.448546,18.746537 42.979177,18.601185 42.656255,18.374985 z"
           id="path3642"
           transform="matrix(0.94230697,-0.33475001,0.33475001,0.94230697,-9.690084,1015.6645)"
           inkscape:connector-curvature="0"
           sodipodi:nodetypes="ccccscccsc" />
        <path
           style="fill:#ff6c00;fill-opacity:1;stroke:#632700;stroke-width:1;stroke-linecap:round;stroke-linejoin:round;stroke-miterlimit:4;stroke-opacity:1;stroke-dasharray:none"
           d="M 33.593755,16.281235 30.906255,22.593735 36.000005,25.999985 39.187505,28.124985 41.031255,18.937485 C 39.175038,17.637242 36.659032,16.691904 33.593755,16.281235 z"
           id="path3592"
           transform="matrix(0.94230697,-0.33475001,0.33475001,0.94230697,-9.690084,1015.6645)"
           inkscape:connector-curvature="0"
           sodipodi:nodetypes="cccccc" />
        <path
           style="fill:#ff6c00;fill-opacity:1;stroke:#632700;stroke-width:1;stroke-linecap:round;stroke-linejoin:round;stroke-miterlimit:4;stroke-opacity:1;stroke-dasharray:none"
           d="M 23.562505,12.562485 28.000005,16.999985 29.000005,17.999985 30.125005,18.749985 32.812505,12.437485 C 29.944801,12.053286 26.755247,12.185585 23.562505,12.562485 z"
           id="path2989"
           transform="matrix(0.94230697,-0.33475001,0.33475001,0.94230697,-9.690084,1015.6645)"
           inkscape:connector-curvature="0"
           sodipodi:nodetypes="cccccc" />
      </g>
    </g>
    <g
       id="g3500"
       transform="translate(-0.33962264,0.56603774)" />
    <path
       style="fill:none;stroke:#000000;stroke-width:1px;stroke-linecap:butt;stroke-linejoin:miter;stroke-opacity:1"
       d="M 45.660377,1014.9282 C 48.660377,1017.9282 48.660377,1017.9282 48.660377,1017.9282"
       id="path3612"
       inkscape:connector-curvature="0" />
    <path
       style="fill:none;stroke:#000000;stroke-width:1px;stroke-linecap:butt;stroke-linejoin:miter;stroke-opacity:1"
       d="M 45.433962,1017.9282 C 48.433962,1014.9282 48.433962,1014.9282 48.433962,1014.9282"
       id="path3614"
       inkscape:connector-curvature="0" />
    <g
       id="g3630" />
  </g>
</svg>
