<?xml version="1.0" encoding="UTF-8" standalone="no"?>
<!-- Created with Inkscape (http://www.inkscape.org/) -->

<svg
   xmlns:dc="http://purl.org/dc/elements/1.1/"
   xmlns:cc="http://creativecommons.org/ns#"
   xmlns:rdf="http://www.w3.org/1999/02/22-rdf-syntax-ns#"
   xmlns:svg="http://www.w3.org/2000/svg"
   xmlns="http://www.w3.org/2000/svg"
   xmlns:sodipodi="http://sodipodi.sourceforge.net/DTD/sodipodi-0.dtd"
   xmlns:inkscape="http://www.inkscape.org/namespaces/inkscape"
   width="60"
   height="60"
   id="svg2"
   version="1.1"
   inkscape:version="0.48.4 r9939"
   sodipodi:docname="turt.svg"
   inkscape:export-filename="/users/my/prog/fishc/data/fish1.png"
   inkscape:export-xdpi="90"
   inkscape:export-ydpi="90">
  <defs
     id="defs4" />
  <sodipodi:namedview
     id="base"
     pagecolor="#ffffff"
     bordercolor="#666666"
     borderopacity="1.0"
     inkscape:pageopacity="0.0"
     inkscape:pageshadow="2"
     inkscape:zoom="17.303717"
     inkscape:cx="29.999999"
     inkscape:cy="30.337442"
     inkscape:document-units="px"
     inkscape:current-layer="layer1"
     showgrid="true"
     inkscape:window-width="1024"
     inkscape:window-height="718"
     inkscape:window-x="0"
     inkscape:window-y="28"
     inkscape:window-maximized="1">
    <inkscape:grid
       type="xygrid"
       id="grid2987"
       empspacing="5"
       visible="true"
       enabled="true"
       snapvisiblegridlinesonly="true" />
  </sodipodi:namedview>
  <metadata
     id="metadata7">
    <rdf:RDF>
      <cc:Work
         rdf:about="">
        <dc:format>image/svg+xml</dc:format>
        <dc:type
           rdf:resource="http://purl.org/dc/dcmitype/StillImage" />
        <dc:title></dc:title>
      </cc:Work>
    </rdf:RDF>
  </metadata>
  <g
     inkscape:label="Layer 1"
     inkscape:groupmode="layer"
     id="layer1"
     transform="translate(0,-992.3622)">
    <g
       id="g4049"
       transform="matrix(0.94230697,0.33475001,-0.33475001,0.94230697,349.12473,38.538233)">
      <g
         id="g3329">
        <path
           style="fill:#ff6c00;fill-opacity:1;stroke:#632700;stroke-width:1;stroke-linecap:round;stroke-linejoin:round;stroke-miterlimit:4;stroke-opacity:1;stroke-dasharray:none"
           d="M 32,1037.3622 C 26,1039.3622 18,1038.3622 14,1036.3622 12.168779,1035.4466 6.8944229,1045.151 6,1043.3622 5,1041.3622 2.962748,1042.3184 3.245283,1041.5131 4,1039.3622 2.0816478,1040.2251 2.6226415,1039.3622 3.1636352,1038.4993 4.2913225,1038.2374 3.6226415,1037.0792 3.3050029,1036.529 7,1035.3622 8,1034.3622 9.5620696,1032.8001 10.06089,1029.4703 19,1024.3622 26,1020.3622 34.418503,1018.3597 39,1020.3622 42.697056,1021.9781 40,1022.3622 46,1019.2113 48.322165,1017.9918 52.493205,1018.403 52,1021.3622 51,1027.3622 47.000004,1025.3622 45.867924,1027.3622 45.094047,1028.7294 44.309642,1029.9006 43.444438,1030.9304 40.326002,1033.9782 37.833831,1035.9247 32,1037.3622 z"
           id="path2989"
           inkscape:connector-curvature="0"
           sodipodi:nodetypes="cssssssssssscc" />
      </g>
      <path
         transform="translate(9.6299434,998.80349)"
         style="fill:none;stroke:#632700;stroke-width:1;stroke-linecap:round;stroke-linejoin:miter;stroke-miterlimit:4;stroke-opacity:1"
         d="M 38.42242,22.5 C 38.42242,23.009439 38.009439,23.42242 37.5,23.42242 36.990561,23.42242 36.57758,23.009439 36.57758,22.5 36.57758,21.990561 36.990561,21.57758 37.5,21.57758 38.009439,21.57758 38.42242,21.990561 38.42242,22.5 z"
         id="path3764" />
      <path
         sodipodi:nodetypes="cc"
         inkscape:connector-curvature="0"
         id="path4006"
         d="m 51.283019,1022.7018 c -3,2 -4,2 -4,2"
         style="fill:none;stroke:#632700;stroke-width:1px;stroke-linecap:round;stroke-linejoin:round;stroke-opacity:1" />
      <path
         sodipodi:nodetypes="cc"
         inkscape:connector-curvature="0"
         id="path4006-7"
         d="m 42,1021.3622 c -1,2 1,5 1,5"
         style="fill:none;stroke:#632700;stroke-width:1px;stroke-linecap:round;stroke-linejoin:round;stroke-opacity:1" />
      <path
         sodipodi:nodetypes="cc"
         inkscape:connector-curvature="0"
         id="path4006-0"
         d="m 42,1024.3622 c -10,12 -32,12 -32,12"
         style="fill:none;stroke:#632700;stroke-width:1px;stroke-linecap:round;stroke-linejoin:round;stroke-opacity:1" />
    </g>
    <path
       style="fill:#ff6c00;fill-opacity:1;stroke:#632700;stroke-width:1;stroke-linecap:round;stroke-linejoin:round;stroke-miterlimit:4;stroke-opacity:1;stroke-dasharray:none"
       d="M 37,1023.3622 C 39,1023.3622 39.892101,1023.9917 45.324059,1022.6109 44,1027.3622 29.277231,1025.2188 25,1023.3622 21.968381,1021.9663 39,1026.3622 37,1023.3622 z"
       id="path2989-0"
       inkscape:connector-curvature="0"
       sodipodi:nodetypes="cccc" />
  </g>
</svg>
