<?xml version="1.0" encoding="UTF-8" standalone="no"?>
<!-- Created with Inkscape (http://www.inkscape.org/) -->

<svg
   xmlns:dc="http://purl.org/dc/elements/1.1/"
   xmlns:cc="http://creativecommons.org/ns#"
   xmlns:rdf="http://www.w3.org/1999/02/22-rdf-syntax-ns#"
   xmlns:svg="http://www.w3.org/2000/svg"
   xmlns="http://www.w3.org/2000/svg"
   xmlns:sodipodi="http://sodipodi.sourceforge.net/DTD/sodipodi-0.dtd"
   xmlns:inkscape="http://www.inkscape.org/namespaces/inkscape"
   width="80"
   height="80"
   id="svg2"
   version="1.1"
   inkscape:version="0.48.4 r9939"
   sodipodi:docname="leader_g.svg"
   inkscape:export-filename="/users/my/prog/treasuremon/data/leader_green.png"
   inkscape:export-xdpi="90"
   inkscape:export-ydpi="90">
  <defs
     id="defs4">
    <inkscape:perspective
       sodipodi:type="inkscape:persp3d"
       inkscape:vp_x="0 : 40 : 1"
       inkscape:vp_y="0 : 1000 : 0"
       inkscape:vp_z="80 : 40 : 1"
       inkscape:persp3d-origin="40 : 26.666667 : 1"
       id="perspective3449" />
  </defs>
  <sodipodi:namedview
     id="base"
     pagecolor="#ffffff"
     bordercolor="#666666"
     borderopacity="1.0"
     inkscape:pageopacity="0.0"
     inkscape:pageshadow="2"
     inkscape:zoom="6.6447037"
     inkscape:cx="35.135253"
     inkscape:cy="39.798021"
     inkscape:document-units="px"
     inkscape:current-layer="layer1"
     showgrid="false"
     inkscape:window-width="1024"
     inkscape:window-height="717"
     inkscape:window-x="0"
     inkscape:window-y="29"
     inkscape:window-maximized="1"
     inkscape:snap-global="true">
    <inkscape:grid
       type="xygrid"
       id="grid3699"
       empspacing="5"
       visible="true"
       enabled="true"
       snapvisiblegridlinesonly="true" />
  </sodipodi:namedview>
  <metadata
     id="metadata7">
    <rdf:RDF>
      <cc:Work
         rdf:about="">
        <dc:format>image/svg+xml</dc:format>
        <dc:type
           rdf:resource="http://purl.org/dc/dcmitype/StillImage" />
        <dc:title />
      </cc:Work>
    </rdf:RDF>
  </metadata>
  <g
     inkscape:label="Layer 1"
     inkscape:groupmode="layer"
     id="layer1"
     transform="translate(0,-972.36215)">
    <g
       id="g3926"
       transform="matrix(-1,0,0,1,79.999999,0)">
      <path
         id="path5586"
         style="fill:#d5ad7d;fill-opacity:1;stroke:#000000;stroke-width:0.97211111;stroke-linejoin:round;stroke-miterlimit:4;stroke-opacity:1;stroke-dashoffset:0"
         d="m 55.643556,1020.7468 c 0.336563,1.5141 0.100557,4.6404 0.100557,4.6404 0.245431,1.1537 1.958027,2.4793 3.003424,2.5329 1.224925,-0.011 2.651821,-0.9052 2.991104,-2.0175 0.567014,-1.8589 -1.667211,-3.5392 -2.332685,-5.3687 m 0,0 c -1.075216,-2.956 -2.788303,-7.3101 -4.928737,-10.5954 -1.31252,-2.0144 -2.793811,-4.0332 -4.778241,-5.4754 -1.717098,-1.2478 -4.58947,-0.935 -5.906961,-2.5599 -0.758057,-0.9348 -0.620795,-3.48433 -0.620795,-3.48433 -2.384547,0.34465 -4.710186,0.16018 -7.094924,0 0,0 0.137262,2.54953 -0.620795,3.48433 -1.317491,1.6249 -4.237116,1.256 -5.906962,2.5599 -1.781326,1.3909 -2.883823,3.4349 -4.025762,5.3333 -2.017494,3.354 -3.853521,7.6394 -4.928737,10.5953 -0.665474,1.8295 -2.899698,3.5098 -2.332684,5.3688 0.339283,1.1122 1.766179,2.008 2.991104,2.0174 1.472096,-0.306 2.660272,-1.2495 3.003424,-2.5329 0,0 -0.236006,-3.1264 0.100557,-4.6405 0.510876,-2.2982 1.334865,-4.6519 2.859419,-6.5064 1.115611,-1.3571 2.723202,-3.8336 4.364379,-3.0934 2.469077,1.1136 0.59049,5.1801 0.300991,7.751 -0.517559,4.5962 -3.021091,9.1261 -3.611899,13.4397 -0.590808,4.3136 1.459106,8.4339 -0.112872,12.2307 -0.820853,1.9826 -5.45319,2.7811 -4.543092,4.7288 1.335621,2.858 7.762178,2.3862 9.918614,0.018 1.319862,-1.4496 -0.978412,-3.7596 -0.917084,-5.671 0.112757,-3.5144 0.955288,-7.052 2.351497,-10.3109 1.091332,-2.5474 3.020169,-7.1134 4.612876,-6.9978 2.088638,0.1515 3.446291,4.5653 4.551356,7.14 1.38407,3.2248 2.360599,6.6912 2.501993,10.1687 0.0777,1.9109 -2.236947,4.2214 -0.917085,5.671 2.156436,2.3683 8.582993,2.8401 9.918614,-0.018 0.910098,-1.9477 -3.698294,-2.7551 -4.543092,-4.7288 -1.637396,-3.8252 0.187608,-8.0703 -0.413864,-12.3729 -0.601472,-4.3026 -2.944935,-8.7571 -3.310907,-13.2975 -0.193013,-2.3946 -1.651138,-6.0713 0.601982,-7.1821 1.649587,-0.8132 3.59296,1.3416 4.815867,2.6667 1.633397,1.7699 2.348543,4.2083 2.859419,6.5065"
         inkscape:connector-curvature="0"
         sodipodi:nodetypes="cccsccaasccsaassccsaaazassaasaassacaaac" />
      <path
         sodipodi:nodetypes="ssassss"
         inkscape:connector-curvature="0"
         id="path5072"
         d="m 28.162205,981.56804 c -1.421025,3.86403 0.518818,10.63178 2.52516,12.69159 2.006337,2.0598 5.338758,5.79497 8.940874,5.73817 3.775739,-0.0598 7.087934,-4.22153 9.154133,-6.30705 2.066194,-2.08551 4.016982,-7.92786 2.437428,-12.40714 -1.579551,-4.47927 -7.532164,-7.94626 -12.281277,-7.76839 -4.749113,0.17786 -9.355297,4.1888 -10.776318,8.05282 z"
         style="fill:#d5ad7d;fill-opacity:1;stroke:#000000;stroke-width:0.79496169;stroke-linejoin:round;stroke-miterlimit:4;stroke-opacity:1;stroke-dashoffset:0" />
    </g>
    <path
       style="fill:#e8befa;fill-opacity:1;stroke:#000000;stroke-width:0.68463087;stroke-miterlimit:4;stroke-opacity:1;stroke-dasharray:none"
       d="m 43.669141,994.50517 c 0,0.40039 -1.425459,0.66511 -3.324457,0.66511 -1.898995,0 -3.55242,-0.26472 -3.55242,-0.66511 0,-0.40006 1.647315,-0.937 3.54631,-0.937 1.898998,0 3.330567,0.53766 3.330567,0.937 z"
       id="path4049"
       inkscape:connector-curvature="0"
       sodipodi:nodetypes="sssss" />
    <path
       style="fill:#e8c0fa;fill-opacity:1;stroke:#000000;stroke-width:0.97211111;stroke-miterlimit:4;stroke-opacity:1;stroke-dasharray:none"
       d="m 38.716314,986.90698 c 0,1.86478 -1.599604,3.3764 -3.572815,3.3764 -1.973212,0 -3.572816,-1.51162 -3.572816,-3.3764 0,-1.86467 1.599604,-3.37632 3.572816,-3.37632 1.973211,0 3.572815,1.51165 3.572815,3.37632 z"
       id="path3912"
       inkscape:connector-curvature="0" />
    <path
       style="fill:#e8c0fa;fill-opacity:1;stroke:#000000;stroke-width:0.97211111;stroke-miterlimit:4;stroke-opacity:1;stroke-dasharray:none"
       d="m 49.108886,986.90245 c 0,1.86469 -1.599604,3.37631 -3.572815,3.37631 -1.973212,0 -3.572816,-1.51162 -3.572816,-3.37631 0,-1.86467 1.599604,-3.37632 3.572816,-3.37632 1.973211,0 3.572815,1.51165 3.572815,3.37632 z"
       id="path3912-5"
       inkscape:connector-curvature="0" />
    <path
       sodipodi:type="arc"
       style="fill:#000000;fill-opacity:1;stroke:#000000;stroke-width:1;stroke-miterlimit:4;stroke-opacity:1;stroke-dasharray:none"
       id="path4462"
       sodipodi:cx="28.427185"
       sodipodi:cy="33.786407"
       sodipodi:rx="1.3980583"
       sodipodi:ry="1.3203883"
       d="M 29.825243,33.786407 C 29.825243,34.515638 29.199311,35.106796 28.427185,35.106796 27.655059,35.106796 27.029127,34.515638 27.029127,33.786407 27.029127,33.057177 27.655059,32.466019 28.427185,32.466019 29.199311,32.466019 29.825243,33.057177 29.825243,33.786407 z"
       transform="matrix(1,0,0,0.945,6.726004,956.56617)" />
    <path
       transform="matrix(1,0,0,0.945,16.968077,956.60928)"
       sodipodi:type="arc"
       style="fill:#000000;fill-opacity:1;stroke:#000000;stroke-width:1;stroke-miterlimit:4;stroke-opacity:1;stroke-dasharray:none"
       id="path4462-4"
       sodipodi:cx="28.427185"
       sodipodi:cy="33.786407"
       sodipodi:rx="1.3980583"
       sodipodi:ry="1.3203883"
       d="M 29.825243,33.786407 C 29.825243,34.515638 29.199311,35.106796 28.427185,35.106796 27.655059,35.106796 27.029127,34.515638 27.029127,33.786407 27.029127,33.057177 27.655059,32.466019 28.427185,32.466019 29.199311,32.466019 29.825243,33.057177 29.825243,33.786407 z" />
    <path
       style="fill:none;stroke:#000000;stroke-width:0.97211111px;stroke-linecap:butt;stroke-linejoin:miter;stroke-opacity:1"
       d="m 40.308996,983.55662 c 0.75248,6.54205 -2.692581,7.36849 -1.354461,8.24868 1.114715,0.73324 3.461402,-0.56888 3.461402,-0.56888"
       id="path5599"
       inkscape:connector-curvature="0"
       sodipodi:nodetypes="csc" />
    <path
       id="path3132"
       style="fill:#ffffff;fill-opacity:0.98823529;stroke:#000000;stroke-width:0.97211110999999994;stroke-linejoin:round;stroke-miterlimit:4;stroke-opacity:1;stroke-dashoffset:0"
       d="m 24.356443,1020.7468 c -0.779452,3.7346 -4.674123,1.9466 -3.7624,-0.2129 m 0,0 c 1.075216,-2.956 2.788303,-7.3101 4.928737,-10.5954 1.31252,-2.0144 2.793811,-4.0332 4.778241,-5.4754 1.717098,-1.2478 4.58947,-0.935 5.906961,-2.5599 3.151547,2.8292 6.040521,2.4304 8.336514,0 1.317491,1.6249 4.237116,1.256 5.906962,2.5599 1.781326,1.3909 2.883823,3.4349 4.025762,5.3333 2.017494,3.354 3.853521,7.6394 4.928737,10.5953 0.685823,3.3506 -3.051866,3.4342 -3.762401,0.2128 -0.510876,-2.2982 -1.334865,-4.6519 -2.859419,-6.5064 -1.115611,-1.3571 -2.723202,-3.8336 -4.364379,-3.0934 -2.469077,1.1136 -0.59049,5.1801 -0.300991,7.751 0.517559,4.5962 3.021091,9.1261 3.611899,13.4397 0.590808,4.3136 0.504403,8.1725 0.112872,12.2307 -0.0993,1.0292 5.45319,2.7811 -0.621097,3.0392 -6.074287,0.258 -3.776013,-2.052 -3.837341,-3.9634 -0.112757,-3.5144 -0.955288,-7.052 -2.351497,-10.3109 -1.091332,-2.5474 -3.020169,-7.1134 -4.612876,-6.9978 -2.088638,0.1515 -3.446291,4.5653 -4.551356,7.14 -1.38407,3.2248 -0.812419,7.1142 -2.501993,10.1687 -0.890068,1.6091 2.236947,4.2214 -3.83734,3.9634 -6.074287,-0.2581 -1.465895,-1.0655 -0.621097,-3.0392 1.637396,-3.8252 -0.187608,-8.0703 0.413864,-12.3729 0.601472,-4.3026 2.944935,-8.7571 3.310907,-13.2975 0.193013,-2.3946 1.651138,-6.0713 -0.601982,-7.1821 -1.649587,-0.8132 -3.59296,1.3416 -4.815867,2.6667 -1.633397,1.7699 -2.348543,4.2083 -2.859419,6.5065"
       inkscape:connector-curvature="0"
       sodipodi:nodetypes="cccaaccaaccaaazacaasaacacaaac" />
  </g>
</svg>
